<svg id="Layer_1" data-name="Layer 1" xmlns="http://www.w3.org/2000/svg" xmlns:xlink="http://www.w3.org/1999/xlink" viewBox="0 0 100 100"><defs><style>.cls-1{fill:url(#linear-gradient);}.cls-2{fill:#f1f2f2;}</style><linearGradient id="linear-gradient" y1="50" x2="100" y2="50" gradientUnits="userSpaceOnUse"><stop offset="0" stop-color="#3a251f"/><stop offset="1" stop-color="#775d55"/></linearGradient></defs><rect class="cls-1" width="100" height="100"/><path class="cls-2" d="M78.31,47.83l-1.51.44c-3.43,1-6.9,1.93-10.42,2.67a58,58,0,0,0-7,2,36.46,36.46,0,0,0-10.73,6.25,18,18,0,0,0-6.15,9.36,12.69,12.69,0,0,0-.43,5.77c1-1.39,2-2.7,3-4,4.14-5.4,9.78-7.65,16.4-7.56a25.27,25.27,0,0,1,7.63,1.36c.29.1.6.13,1.22.26-.38-.49-.53-.74-.72-.94a23.62,23.62,0,0,0-5.45-3.91,12.11,12.11,0,0,1-.95-.79c2.08,0,3.79.05,5.5,0a14.71,14.71,0,0,1,9.6,3A16,16,0,0,1,84.7,72.17a15,15,0,0,1-2.1,10.4c-3,5.09-7.94,6.16-12.54,5.16a8.84,8.84,0,0,1-6.72-9.25,7.78,7.78,0,0,1,5.23-6.8c.05.1.17.21.15.3-.13.63-.25,1.27-.44,1.88a5,5,0,0,0,5,6.15,6.71,6.71,0,0,0,2.54-.71,5.76,5.76,0,0,0,3.06-7.16A7.69,7.69,0,0,0,74,67.26a8.53,8.53,0,0,0-7,.47,13.45,13.45,0,0,0-5.72,5.89,11.39,11.39,0,0,0-1.41,6.49,16.47,16.47,0,0,0,1.25,5.14c.3.68.55,1.39.85,2.14-.63.56-1.21,1-1.77,1.58a11.39,11.39,0,0,0-3.45,5.45,2.93,2.93,0,0,0,.53,3.08c1.12-.78,2.1-1.54,3.15-2.18a17.18,17.18,0,0,1,9.37-2.82,34.12,34.12,0,0,0,6.54-.29c4.93-.8,9.09-2.87,12-7.07a14.93,14.93,0,0,0,2.76-6.46,27.39,27.39,0,0,0,.36-5.24c-.06-.67-.2-1.47-.26-2.14a22.77,22.77,0,0,0-1.92-6.39,17.91,17.91,0,0,0-2-3.51,19.83,19.83,0,0,0-8.19-6.82,11.14,11.14,0,0,1-1.15-.7c3.32-2.19,6-4.69,7-8.65l-1.56-.11c0-.42-.07-.77-.08-1.11,0-7.83,0-15.66-.08-23.5a17.63,17.63,0,0,1,2.46-8.94C87.19,9,89.21,7.23,92.39,6.94c1.09-.09,2.4.08,3.42-.87,0-.84,0-1.73,0-2.62a2.9,2.9,0,0,0-.16-.58h-30V6.43c1.05.22,2,.51,3,.62a10.15,10.15,0,0,1,7.94,5.3,13.66,13.66,0,0,1,1.82,7.11q0,13.62,0,27.24C78.37,47.05,78.33,47.4,78.31,47.83Z"/><path class="cls-2" d="M4.28,86.16v4.13a3.21,3.21,0,0,0,.61.12q15.83,0,31.67,0a4.51,4.51,0,0,0,1-.25,12,12,0,0,0-.12-3.78c-1.68-.31-3.3-.58-4.9-.91-4.08-.83-7.13-2.87-8.6-7a22.59,22.59,0,0,1-1.14-7.48c-.1-12.27-.08-24.55-.1-36.83q0-6.68,0-13.35c0-.6-.2-1.27.3-1.9a2.53,2.53,0,0,1,.43.35c1.17,1.56,2.33,3.13,3.51,4.68q5.28,6.89,10.57,13.76c2.56,3.32,5.16,6.6,7.66,10,.52.7,1.41,1.27,1.39,2.41l-4.83,2.36a6.93,6.93,0,0,0-6.72-5,9.18,9.18,0,0,0,.65.87c2.59,2.84,2.52,5.94.77,9a11.66,11.66,0,0,0-.18,12,16.7,16.7,0,0,0,2.35,3.31c.51.56,1.14,1.33,2.18,1.06a18.6,18.6,0,0,1-1.51-2.49c-1.79-4.35-1-9.85,2.52-13.1,1.63-1.51,3.44-2.84,5.17-4.24A20.49,20.49,0,0,0,54.28,42.2a2.55,2.55,0,0,0-.47-2.49c-.85-1-1.61-2-2.41-3-1.73-2.16-3.49-4.31-5.19-6.49S43.1,26,41.52,24c-2.81-3.64-5.67-7.24-8.47-10.88C30.68,10,28.33,6.9,26,3.76A2.76,2.76,0,0,0,23.5,2.5c-5.87,0-11.75,0-17.62,0-.46,0-.91.07-1.43.12A6.53,6.53,0,0,0,4.38,6C7,6.74,9.53,7.41,12,8.1a7.8,7.8,0,0,1,5.69,6.69c.14,1.59.28,3.18.33,4.77.08,2.85.13,5.7.08,8.54-.07,4.33-.08,6.5-.06,8.58-.18,6.87-.15,13.77-.24,20.7-.07,5.16-.05,10.32-.13,15.48a15.19,15.19,0,0,1-.52,3.67A13,13,0,0,1,6,85.81C5.42,85.88,4.86,86,4.28,86.16Z"/></svg>