<?xml version="1.0" encoding="UTF-8"?>
<svg id="Layer_1" data-name="Layer 1" xmlns="http://www.w3.org/2000/svg" viewBox="0 0 100 100">
  <defs>
    <style>
      .cls-1 {
        fill: #c1a380;
        stroke-width: 0px;
      }
    </style>
  </defs>
  <path class="cls-1" d="M26.71,21.16c-.02-.14-.11-.24-.25-.26-.13-.01-.26,0-.38,0-3.64,0-7.29,0-10.93,0-.11,0-.22,0-.34.02-.1.01-.17.09-.2.18-.05,0-.1,0-.15-.01v71.22c.06,0,.11.02.17.03.1.21.28.17.46.17,2.84,0,5.68,0,8.52,0,.75,0,1.51,0,2.26,0,.14,0,.29,0,.43-.01.27-.03.37-.13.39-.4.02-.16.02-.32.02-.48,0-1.57,0-3.14,0-4.72,0-4.47,0-8.95,0-13.42,0-4.96,0-9.91,0-14.87,0-4.23,0-8.47,0-12.7,0-4.01,0-8.02,0-12.03,0-4.12,0-8.24,0-12.37,0-.11,0-.23-.01-.34Z"/>
  <path class="cls-1" d="M85.54,20.45c0-.68-.04-.72-.69-.72-3.63,0-7.25,0-10.88,0-.1,0-.19,0-.29,0-.22.02-.31.1-.33.33-.02.14-.02.29-.02.43,0,2.44,0,4.88,0,7.31,0,6.8,0,13.6,0,20.4,0,1.04,0,2.08,0,3.13,0,.6-.1.68-.71.7-.05,0-.1,0-.14,0-.48,0-.96.01-1.44,0-.8,0-1.6,0-2.41-.03-.58-.02-1.03.18-1.36.66-.13.18-.26.37-.39.55-1.56,2.16-3.38,4.07-5.46,5.73-2.24,1.78-4.69,3.19-7.33,4.28-.55.23-1.09.46-1.64.7-.07.03-.15.07-.21.11-.02.01-.04.05-.04.08,0,.04.02.05.06.05.11,0,.22,0,.34,0,6.72,0,13.45,0,20.17,0,.56,0,.57,0,.57.56,0,.85,0,1.7,0,2.55,0,6.66,0,13.31,0,19.97,0,1.49,0,2.98,0,4.47,0,.18,0,.35.02.53.01.15.1.23.25.25.11.01.22.01.34.01,3.58,0,7.16,0,10.74,0,.14,0,.29,0,.43-.02.26-.03.38-.13.41-.39.03-.29.03-.58.03-.86,0-1.88,0-3.75,0-5.63,0-5.65,0-11.29,0-16.94,0-4.2,0-8.4,0-12.61h0c0-.29,0-.58,0-.87,0-5.48,0-10.97,0-16.45,0-3.75,0-7.51,0-11.26,0-2.34,0-4.68,0-7.02Z"/>
  <path class="cls-1" d="M62.36,56.58c2.42-2.25,4.39-4.85,5.89-7.79.85-1.66,1.53-3.39,2.03-5.18.46-1.66.77-3.34.94-5.05.15-1.63.17-3.27.04-4.9-.16-2.03-.53-4.03-1.1-6-1-3.41-2.6-6.51-4.82-9.29-1.24-1.56-2.64-2.97-4.17-4.25-2.54-2.13-5.36-3.8-8.49-4.92-.44-.16-.86-.34-1.33-.41-.02-.01-.04-.02-.06-.01-.09-.07-.19-.12-.31-.09-.53-.16-1.05-.32-1.6-.4-.1-.08-.21-.11-.33-.08-.02-.01-.04-.02-.06,0-.13-.08-.26-.12-.41-.09-.02-.01-.05-.02-.07,0-.16-.08-.32-.12-.5-.09-.12-.03-.25-.06-.37-.08-.6-.08-1.19-.15-1.79-.22-.11-.01-.23,0-.32-.07-.07-.06-.02-.1.05-.13H14.46v11.93c.09-.04.13.05.19.08.03.04.06.07.1.11.06.07.13.09.21.09.14,0,.29,0,.43,0,4.72,0,9.44,0,14.16,0,4.8,0,9.6.01,14.4.02.06,0,.13-.01.19-.02.06,0,.12,0,.18,0,.19.03.38.07.57.09,1.43.15,2.81.51,4.13,1.05,2.2.9,4.13,2.2,5.74,3.95,3.5,3.79,4.94,8.25,4.25,13.36-.39,2.91-1.54,5.51-3.39,7.79-2.57,3.17-5.87,5.1-9.88,5.84-.97.18-1.94.24-2.92.25-.66,0-1.32,0-1.97,0-.12,0-.26-.04-.37.06-.06-.01-.12-.04-.18-.04-.95,0-1.9,0-2.86,0-.04-.03-.09-.03-.13,0h0c-.08,0-.16-.01-.24-.01-2.85,0-5.71,0-8.56,0-.08,0-.16,0-.24,0-.23.02-.31.09-.32.33,0,.14,0,.29,0,.43,0,3.11,0,6.22,0,9.33,0,.53,0,1.06,0,1.59,0,.13,0,.26.12.35.06.06.13.09.22.09.13,0,.26,0,.39,0,4.11,0,8.22,0,12.33,0,1.3,0,2.6.03,3.9-.05,1.19-.08,2.37-.22,3.53-.44,2.42-.47,4.74-1.24,6.96-2.33,2.56-1.25,4.89-2.82,6.97-4.76Z"/>
</svg>