<svg id="Layer_1" data-name="Layer 1" xmlns="http://www.w3.org/2000/svg" xmlns:xlink="http://www.w3.org/1999/xlink" viewBox="0 0 50 50"><defs><style>.cls-1{stroke:#412312;stroke-miterlimit:10;fill:url(#linear-gradient);}.cls-2{fill:#010101;}.cls-3{fill:#482d1b;}</style><linearGradient id="linear-gradient" x1="42.08" y1="-4.58" x2="7.92" y2="54.58" gradientUnits="userSpaceOnUse"><stop offset="0" stop-color="#f6dfad"/><stop offset="1" stop-color="#e4bb6c"/></linearGradient></defs><rect class="cls-1" width="50" height="50"/><path class="cls-2" d="M16.85,19.26h2a11.15,11.15,0,0,1,6.65-2,9.83,9.83,0,0,1,6.34,2h2s-2.3-3.15-8.53-3.15S16.85,19.26,16.85,19.26Z"/><path class="cls-2" d="M18.93,32a.8.8,0,0,1-.88-.08.85.85,0,0,1-.34-.56.81.81,0,0,1,.16-.64.8.8,0,0,1,.56-.33.83.83,0,0,1,.64.16.87.87,0,0,1,.34.63.51.51,0,0,1,0,.18l-.15-.11A.65.65,0,0,0,19,30.7a.66.66,0,0,0-.51-.12.66.66,0,0,0-.46.27.72.72,0,0,0-.13.52.69.69,0,0,0,.27.46.56.56,0,0,0,.31.12.62.62,0,0,0,.33,0Z"/><path class="cls-2" d="M20.5,33a.84.84,0,0,1-.66,0,.88.88,0,0,1-.46-.47.84.84,0,0,1,.48-1.11.84.84,0,0,1,.66,0,.84.84,0,0,1,0,1.57Zm.33-1a.68.68,0,0,0-.37-.39.64.64,0,0,0-.54,0,.71.71,0,0,0-.39.37.64.64,0,0,0,0,.54.69.69,0,0,0,.37.38.69.69,0,0,0,.93-.9Z"/><path class="cls-2" d="M22.59,33.76l.32-1.43h0L22,33.62l-.14,0L21.58,32h0l-.32,1.43-.16,0,.36-1.6.25.05.27,1.5.9-1.23.24,0-.36,1.61Z"/><path class="cls-2" d="M24.79,34l.1-1.46h0l-.71,1.42H24l-.51-1.51h0l-.1,1.46h-.17l.12-1.64.25,0,.5,1.44.69-1.36.26,0L25,34Z"/><path class="cls-2" d="M26.81,33.68a.81.81,0,0,1-.6.28.86.86,0,0,1-.91-.79.82.82,0,0,1,.22-.62.87.87,0,0,1,1.23-.07.84.84,0,0,1,.29.59A.82.82,0,0,1,26.81,33.68Zm-.17-1.09a.7.7,0,0,0-.51-.18.66.66,0,0,0-.49.24.7.7,0,0,0-.18.51.66.66,0,0,0,.24.48.63.63,0,0,0,.5.17.65.65,0,0,0,.49-.23.66.66,0,0,0,.18-.5A.71.71,0,0,0,26.64,32.59Z"/><path class="cls-2" d="M28.44,33.52a.82.82,0,0,1-.24.15,1.38,1.38,0,0,1-.27.08l-.47.09-.29-1.62.47-.09a1.34,1.34,0,0,1,.28,0,.68.68,0,0,1,.27.05.75.75,0,0,1,.49.62A.77.77,0,0,1,28.44,33.52Zm-.29-1.2a.61.61,0,0,0-.28-.06h-.14l-.14,0-.23.05.24,1.32.26,0,.14,0,.13,0a.76.76,0,0,0,.23-.15.65.65,0,0,0,.15-.27.81.81,0,0,0,0-.31A.65.65,0,0,0,28.15,32.32Z"/><path class="cls-2" d="M29.17,33.49l-.43-1.59.16,0,.43,1.58Z"/><path class="cls-2" d="M29.6,31.79l.48,1.42-.15,0-.49-1.41-.36.12,0-.14.86-.3.05.14Z"/><path class="cls-2" d="M30.68,33,30,31.46l.15-.06.64,1.51Z"/><path class="cls-2" d="M31.21,32.75l-.78-1.45.8-.42.07.13-.65.34.28.52.62-.33.08.13L31,32l.29.53.64-.35.07.13Z"/><path class="cls-2" d="M32.91,31.55a.46.46,0,0,1-.2.32.47.47,0,0,1-.37.11.45.45,0,0,1-.32-.2l.13-.1a.3.3,0,0,0,.47.07.31.31,0,0,0,.14-.21.37.37,0,0,0-.06-.25.29.29,0,0,0-.24-.12l-.13,0-.14,0-.16.05a.47.47,0,0,1-.16,0,.37.37,0,0,1-.28-.17.43.43,0,0,1-.08-.33.49.49,0,0,1,.19-.3.5.5,0,0,1,.34-.09.43.43,0,0,1,.29.18l-.13.1a.35.35,0,0,0-.19-.12.33.33,0,0,0-.22.05.28.28,0,0,0-.12.19.25.25,0,0,0,0,.22.25.25,0,0,0,.24.1l.13,0,.13,0a.56.56,0,0,1,.33,0,.41.41,0,0,1,.27.18A.4.4,0,0,1,32.91,31.55Z"/><path class="cls-2" d="M12.37,24.33l-.17.56c-.42,1.42-.85,2.83-1.27,4.25,0,.13-.08.27-.27.26s-.24-.09-.29-.24c-.49-1.52-1-3-1.5-4.55a.53.53,0,0,0-.11-.21.43.43,0,0,0,0,.11c0,1.21,0,2.42,0,3.63a1.66,1.66,0,0,0,.4,1l.18.22H7.22c0-.08.08-.16.12-.21a1.55,1.55,0,0,0,.43-1.08c0-.23,0-.46,0-.69,0-1.7,0-3.39,0-5.08a2,2,0,0,0-.49-1.39s0-.06-.08-.12l.25,0H9.12a.28.28,0,0,1,.32.24c.46,1.4.93,2.79,1.4,4.19a1,1,0,0,0,.09.2,3,3,0,0,0,.13-.28l1.23-4.06c.09-.29.09-.29.4-.29h1.68l.3,0c-.06.09-.08.16-.13.22a1.6,1.6,0,0,0-.43,1.1c0,2,0,4,0,6a1.67,1.67,0,0,0,.43,1.08l.14.19H11.8a1.53,1.53,0,0,1,.15-.23,1.61,1.61,0,0,0,.42-1.09Z"/><path class="cls-2" d="M19.41,20.8l.24,0h2.68a3.5,3.5,0,0,1,1.46.3A2,2,0,0,1,25,22.74a2.31,2.31,0,0,1-.73,2.2l0,.06a.46.46,0,0,0,.07.07,2.32,2.32,0,0,1,.91,2.75,2.12,2.12,0,0,1-2,1.53c-1.19.08-2.39,0-3.58,0l-.17,0a1.58,1.58,0,0,1,.15-.18A1.79,1.79,0,0,0,20,28c0-1.84,0-3.68,0-5.52a2,2,0,0,0-.5-1.56A.49.49,0,0,1,19.41,20.8Zm2.82,4.74h-.3c-.24,0-.27,0-.27.28v.7q0,.66,0,1.32c0,.28.06.34.34.35a3.51,3.51,0,0,0,.65,0,.91.91,0,0,0,.93-.92,3.06,3.06,0,0,0,0-.8.91.91,0,0,0-.87-.88Zm-.58-2.34h0c0,.24,0,.48,0,.72,0,.61-.12.58.62.55a1,1,0,0,0,1-.74,2,2,0,0,0-.05-1.25.68.68,0,0,0-.63-.49c-.26,0-.52,0-.77,0s-.19.06-.19.19C21.66,22.5,21.65,22.85,21.65,23.2Z"/><path class="cls-2" d="M35.69,29.38a2.62,2.62,0,0,1,.21-.23A2.2,2.2,0,0,0,36.56,28c.51-1.92,1-3.83,1.54-5.75,0-.1,0-.2.07-.29a.82.82,0,0,0-.22-.89c-.06-.07-.11-.16-.2-.28h3.14l-.21.27a.84.84,0,0,0-.22.84c.45,1.86.89,3.72,1.34,5.58,0,.15.07.29.1.44a2,2,0,0,0,.7,1.28.71.71,0,0,1,.13.17H39.64c.07-.09.1-.15.15-.2A1.09,1.09,0,0,0,40.13,28a5.13,5.13,0,0,1-.13-.66c0-.13-.09-.19-.22-.19-.59,0-1.17,0-1.76,0a.31.31,0,0,0-.2.17c-.08.27-.14.55-.2.83a.9.9,0,0,0,.23.84l.3.35ZM39,22.73c0,.05-.06.07-.06.09-.26,1.05-.51,2.09-.77,3.13,0,.15,0,.19.16.19h1.17c.18,0,.22-.06.18-.24l-.36-1.74C39.21,23.69,39.1,23.23,39,22.73Z"/><path class="cls-2" d="M35.43,22.16c0,.4,0,.8,0,1.19,0,.2-.07.26-.26.26-.54,0-.52,0-.74-.49a3.39,3.39,0,0,0-.48-.85,1.08,1.08,0,0,0-1.62-.09,2.67,2.67,0,0,0-.74,1.5,7.15,7.15,0,0,0,.15,3.22,2,2,0,0,0,.63,1,1.2,1.2,0,0,0,1.88-.28,2.45,2.45,0,0,0,.34-1.09c0-.16.08-.22.24-.21h.57c.15,0,.21.07.2.21A3.25,3.25,0,0,1,34.42,29a2.61,2.61,0,0,1-2.68.28,2.89,2.89,0,0,1-1.6-1.77,6.6,6.6,0,0,1-.36-3.35,6.48,6.48,0,0,1,.32-1.45,3,3,0,0,1,2.22-2,2.29,2.29,0,0,1,1.8.31l.13.09a.54.54,0,0,0,.81-.11l.17-.19a.22.22,0,0,1,.14-.05.2.2,0,0,1,.06.13v1.29Z"/><path class="cls-2" d="M28.86,20.87l-.15.2a1.6,1.6,0,0,0-.39,1c0,.64,0,1.28,0,1.92,0,1.24,0,2.49,0,3.73a2.14,2.14,0,0,0,.52,1.55s0,0,0,.09H26c.07-.1.1-.17.15-.23a1.59,1.59,0,0,0,.42-1.06c0-2,0-4.05,0-6.07a1.65,1.65,0,0,0-.41-1,2.3,2.3,0,0,1-.16-.2h2.82Z"/><path class="cls-2" d="M15.61,20.81h2.86a1.18,1.18,0,0,1-.11.18,1.75,1.75,0,0,0-.47,1.29q0,3,0,5.94a1.53,1.53,0,0,0,.4,1l.17.21H15.58a1.7,1.7,0,0,1,.15-.21A1.68,1.68,0,0,0,16.17,28q0-3,0-6.07a1.63,1.63,0,0,0-.41-1Z"/><path class="cls-3" d="M16.9,19.21h2a11.15,11.15,0,0,1,6.65-2,9.83,9.83,0,0,1,6.34,2h1.95S31.55,16,25.32,16,16.9,19.21,16.9,19.21Z"/><path class="cls-2" d="M19,32a.8.8,0,0,1-.88-.08.81.81,0,0,1-.34-.56.78.78,0,0,1,.16-.64.84.84,0,0,1,1.19-.16.81.81,0,0,1,.35.62,1.15,1.15,0,0,1,0,.19l-.15-.11a.68.68,0,0,0-.8-.71.64.64,0,0,0-.45.28.65.65,0,0,0-.13.51.69.69,0,0,0,.26.46.75.75,0,0,0,.32.13.79.79,0,0,0,.33,0Z"/><path class="cls-2" d="M20.55,32.94a.88.88,0,0,1-.66,0,.82.82,0,0,1-.46-.47.74.74,0,0,1,0-.65.82.82,0,0,1,.47-.46.86.86,0,0,1,.67,0,.85.85,0,0,1,.46.47.84.84,0,0,1,0,.66A.88.88,0,0,1,20.55,32.94Zm.33-1.06a.66.66,0,0,0-.37-.38.64.64,0,0,0-.54,0,.66.66,0,0,0-.39.38.62.62,0,0,0,0,.53.63.63,0,0,0,.37.38.65.65,0,0,0,.53,0,.62.62,0,0,0,.39-.37A.67.67,0,0,0,20.88,31.88Z"/><path class="cls-2" d="M22.64,33.71,23,32.28h0L22,33.58l-.14,0L21.62,32h0l-.32,1.43-.16,0,.36-1.6.25.05.27,1.5.89-1.23.25,0-.36,1.61Z"/><path class="cls-2" d="M24.84,33.92l.1-1.46h0l-.71,1.42h-.14l-.51-1.5h0l-.1,1.47-.16,0,.11-1.64.25,0,.51,1.44.69-1.36.25,0L25,33.93Z"/><path class="cls-2" d="M26.86,33.64a.91.91,0,0,1-.6.28.85.85,0,0,1-.62-.22.78.78,0,0,1-.29-.58.8.8,0,0,1,.22-.62.81.81,0,0,1,.6-.28.83.83,0,0,1,.62.21.77.77,0,0,1,.29.59A.8.8,0,0,1,26.86,33.64Zm-.17-1.09a.7.7,0,0,0-.51-.18.65.65,0,0,0-.49.23.7.7,0,0,0-.18.51.72.72,0,0,0,.74.66.71.71,0,0,0,.49-.23.7.7,0,0,0,.18-.51A.69.69,0,0,0,26.69,32.55Z"/><path class="cls-2" d="M28.48,33.48a1,1,0,0,1-.23.14.92.92,0,0,1-.27.08l-.47.09-.29-1.62.47-.08a.88.88,0,0,1,.28,0,.76.76,0,0,1,.27,0,.79.79,0,0,1,.49.62A.78.78,0,0,1,28.48,33.48Zm-.28-1.21a.87.87,0,0,0-.28-.05h-.14l-.14,0-.23,0,.23,1.32.27,0,.14,0,.13,0a.51.51,0,0,0,.23-.15.59.59,0,0,0,.15-.27.8.8,0,0,0,0-.31A.65.65,0,0,0,28.2,32.27Z"/><path class="cls-2" d="M29.22,33.44l-.43-1.59.16,0,.43,1.59Z"/><path class="cls-2" d="M29.64,31.74l.49,1.42-.16.05-.48-1.41-.36.12-.05-.14.87-.3.05.14Z"/><path class="cls-2" d="M30.73,32.93l-.65-1.51.15-.07.65,1.52Z"/><path class="cls-2" d="M31.26,32.7l-.78-1.45.79-.42.07.13-.64.35.28.52.62-.34.07.13-.62.34.28.53.65-.34.07.13Z"/><path class="cls-2" d="M33,31.51a.5.5,0,0,1-.2.32.51.51,0,0,1-.37.1.45.45,0,0,1-.33-.2l.14-.09a.31.31,0,0,0,.47.07.3.3,0,0,0,.13-.22.26.26,0,0,0-.06-.24.3.3,0,0,0-.23-.13l-.14,0-.13,0-.17.05a.41.41,0,0,1-.15,0,.36.36,0,0,1-.28-.16.43.43,0,0,1-.08-.34.41.41,0,0,1,.19-.29.4.4,0,0,1,.33-.09.39.39,0,0,1,.3.18l-.13.09a.29.29,0,0,0-.19-.11.24.24,0,0,0-.22,0,.26.26,0,0,0-.12.19.23.23,0,0,0,.05.21.22.22,0,0,0,.23.1l.14,0,.13-.05a.65.65,0,0,1,.33,0,.41.41,0,0,1,.27.18A.48.48,0,0,1,33,31.51Z"/><path class="cls-3" d="M12.42,24.29l-.17.55c-.43,1.42-.85,2.84-1.28,4.25,0,.14-.07.27-.26.27s-.24-.1-.29-.25l-1.5-4.55a.53.53,0,0,0-.11-.21.43.43,0,0,0,0,.11c0,1.21,0,2.42,0,3.63a1.58,1.58,0,0,0,.4,1l.17.23H7.27a1.45,1.45,0,0,1,.12-.22A1.6,1.6,0,0,0,7.82,28c0-.23,0-.46,0-.69,0-1.69,0-3.39,0-5.08a1.88,1.88,0,0,0-.49-1.38s0-.07-.07-.13l.25,0H9.17a.3.3,0,0,1,.32.24c.46,1.4.93,2.8,1.39,4.19a1.78,1.78,0,0,0,.1.21c0-.13.1-.21.12-.29l1.23-4c.09-.3.1-.3.4-.3h1.69l.3,0c-.06.1-.09.17-.13.22a1.56,1.56,0,0,0-.43,1.1c0,2,0,4,0,6a1.64,1.64,0,0,0,.42,1.08l.15.19H11.85A1.31,1.31,0,0,1,12,29.1,1.61,1.61,0,0,0,12.42,28Z"/><path class="cls-3" d="M19.46,20.76l.23,0h2.68a3.39,3.39,0,0,1,1.47.29A2.06,2.06,0,0,1,25,22.7a2.31,2.31,0,0,1-.73,2.19l0,.06s0,.06.06.07a2.32,2.32,0,0,1,.92,2.75,2.12,2.12,0,0,1-2,1.53c-1.19.08-2.39,0-3.59.06a.9.9,0,0,1-.16,0l.14-.18A1.8,1.8,0,0,0,20,28V22.48a2,2,0,0,0-.51-1.56S19.49,20.83,19.46,20.76Zm2.82,4.73H22c-.24,0-.27,0-.27.27s0,.47,0,.7c0,.44,0,.88,0,1.33,0,.27.06.33.34.34a3.56,3.56,0,0,0,.65,0,.91.91,0,0,0,.93-.91,4.39,4.39,0,0,0,0-.81.9.9,0,0,0-.87-.87C22.61,25.51,22.44,25.51,22.28,25.49Zm-.58-2.34h0v.72c0,.61-.11.59.62.55a1,1,0,0,0,1-.74,2,2,0,0,0-.05-1.24.72.72,0,0,0-.64-.5c-.25,0-.51,0-.77,0s-.18.06-.18.19C21.71,22.45,21.7,22.8,21.7,23.15Z"/><path class="cls-3" d="M35.73,29.33c.1-.1.15-.17.22-.23A2.21,2.21,0,0,0,36.61,28c.51-1.92,1-3.84,1.54-5.76,0-.09,0-.19.07-.29A.85.85,0,0,0,38,21a3,3,0,0,1-.2-.28h3.13a3.17,3.17,0,0,1-.2.27.84.84,0,0,0-.22.84q.68,2.79,1.33,5.58c0,.15.08.3.11.45a2,2,0,0,0,.7,1.27,1.77,1.77,0,0,1,.13.17H39.69a1.29,1.29,0,0,1,.15-.2A1.09,1.09,0,0,0,40.18,28c-.06-.22-.1-.44-.14-.66a.19.19,0,0,0-.21-.19c-.59,0-1.18,0-1.77,0a.26.26,0,0,0-.19.16,5.9,5.9,0,0,0-.2.83.92.92,0,0,0,.23.85l.3.34ZM39,22.68c0,.05-.05.07-.05.09-.26,1.05-.52,2.09-.77,3.14,0,.14,0,.19.15.19h1.17c.19,0,.23-.06.19-.24-.13-.58-.24-1.16-.36-1.74S39.15,23.18,39,22.68Z"/><path class="cls-3" d="M35.48,22.12c0,.39,0,.79,0,1.19,0,.19-.08.25-.26.25-.54,0-.52,0-.74-.49a3.42,3.42,0,0,0-.49-.85,1.07,1.07,0,0,0-1.61-.09,2.61,2.61,0,0,0-.74,1.51,7.25,7.25,0,0,0,.14,3.21,2.06,2.06,0,0,0,.64,1,1.19,1.19,0,0,0,1.87-.28,2.46,2.46,0,0,0,.35-1.09c0-.15.08-.22.23-.21h.58c.15,0,.21.08.19.21A3.29,3.29,0,0,1,34.46,29a2.59,2.59,0,0,1-2.67.27,2.89,2.89,0,0,1-1.6-1.77,6.71,6.71,0,0,1-.37-3.35,7.7,7.7,0,0,1,.32-1.44,3,3,0,0,1,2.22-2,2.27,2.27,0,0,1,1.81.31l.13.08a.54.54,0,0,0,.81-.11l.17-.19a.11.11,0,0,1,.2.09c0,.31,0,.63,0,1C35.47,21.89,35.47,22,35.48,22.12Z"/><path class="cls-3" d="M28.91,20.82l-.15.21a1.57,1.57,0,0,0-.39,1c0,.64-.05,1.28-.05,1.92,0,1.25,0,2.49,0,3.73a2.07,2.07,0,0,0,.52,1.55s0,.05,0,.09H26.06a2,2,0,0,1,.15-.22A1.69,1.69,0,0,0,26.63,28q0-3,0-6.07a1.62,1.62,0,0,0-.41-1l-.16-.21H28.9Z"/><path class="cls-3" d="M15.66,20.76h2.86a.82.82,0,0,1-.11.18,1.77,1.77,0,0,0-.47,1.29c0,2,0,4,0,5.95a1.56,1.56,0,0,0,.4.95l.16.2H15.63a1.7,1.7,0,0,1,.15-.21A1.67,1.67,0,0,0,16.22,28c0-2,0-4.05,0-6.07a1.6,1.6,0,0,0-.41-.94Z"/></svg>