<?xml version="1.0" encoding="UTF-8"?>
<svg id="Layer_1" data-name="Layer 1" xmlns="http://www.w3.org/2000/svg" xmlns:xlink="http://www.w3.org/1999/xlink" viewBox="0 0 100 100">
  <defs>
    <style>
      .cls-1 {
        fill: url(#linear-gradient-2);
      }

      .cls-2 {
        fill: aqua;
      }

      .cls-3 {
        fill: url(#linear-gradient-6);
      }

      .cls-4 {
        fill: url(#linear-gradient-5);
      }

      .cls-5 {
        fill: url(#linear-gradient-7);
      }

      .cls-6 {
        fill: url(#linear-gradient-9);
      }

      .cls-7 {
        fill: url(#linear-gradient-3);
      }

      .cls-8 {
        fill: #017065;
      }

      .cls-9 {
        fill: url(#linear-gradient);
      }

      .cls-10 {
        fill: url(#linear-gradient-4);
      }

      .cls-11 {
        fill: url(#linear-gradient-8);
      }
    </style>
    <linearGradient id="linear-gradient" x1="30.33" y1="48.51" x2="75.57" y2="48.51" gradientUnits="userSpaceOnUse">
      <stop offset="0" stop-color="#54a3b6"/>
      <stop offset="1" stop-color="#e67daf"/>
    </linearGradient>
    <linearGradient id="linear-gradient-2" x1="9.31" y1="51.24" x2="39.4" y2="51.24" xlink:href="#linear-gradient"/>
    <linearGradient id="linear-gradient-3" x1="38.01" y1="29.97" x2="56.72" y2="29.97" xlink:href="#linear-gradient"/>
    <linearGradient id="linear-gradient-4" x1="55.16" y1="51.95" x2="92.15" y2="51.95" xlink:href="#linear-gradient"/>
    <linearGradient id="linear-gradient-5" x1="19.3" y1="38.55" x2="38.38" y2="38.55" xlink:href="#linear-gradient"/>
    <linearGradient id="linear-gradient-6" x1="49.52" y1="60.86" x2="57.88" y2="60.86" xlink:href="#linear-gradient"/>
    <linearGradient id="linear-gradient-7" x1="39.54" y1="62.92" x2="45.72" y2="62.92" xlink:href="#linear-gradient"/>
    <linearGradient id="linear-gradient-8" x1="45.02" y1="63.05" x2="49.99" y2="63.05" xlink:href="#linear-gradient"/>
    <linearGradient id="linear-gradient-9" x1="46.82" y1="60.54" x2="47.9" y2="60.54" xlink:href="#linear-gradient"/>
  </defs>
  <rect class="cls-2" width="100" height="100"/>
  <g>
    <path class="cls-8" d="M5.13,47.08c.92-12.24,6.84-24.13,16.37-31.92,12.06-9.86,30.14-13.1,44.69-7.16-7.42-2.06-14.56-3.16-22.29-1.83s-14.74,4.49-20.6,9.39C11.55,25.4,5.64,41.74,8.38,56.81s14.03,28.28,28.49,33.34c14.46,5.06,31.52,1.77,43.07-8.3,11.54-10.07,17.11-26.53,14.06-41.54,3.44,15.56-2.14,32.78-14.04,43.38s-29.66,14.13-44.71,8.91c-15.05-5.22-26.8-19-29.59-34.69-.63-3.58-.8-7.22-.53-10.83Z"/>
    <g>
      <g>
        <path class="cls-9" d="M69.87,45.7c-.03,.08-.04,.14-.08,.2-.9,1.43-1.81,2.85-2.71,4.28-.19,.29-.35,.6-.5,.92-.07,.14-.09,.31-.09,.46,0,.24,.17,.37,.4,.29,.19-.07,.37-.15,.53-.27,.3-.23,.6-.47,.87-.73,.55-.53,1.09-1.06,1.61-1.61,.48-.51,.92-1.05,1.39-1.57,.53-.6,1.07-1.18,1.6-1.78,.09-.1,.16-.22,.24-.34,.12-.18,.22-.38,.36-.55,.15-.18,.35-.29,.6-.27,.36,.03,.56,.38,.38,.69-.08,.13-.21,.23-.33,.33-.07,.06-.16,.08-.24,.12-.25,.16-.43,.37-.4,.68,.03,.37,.06,.73,.12,1.1,.09,.54,.23,1.07,.29,1.61,.03,.29-.05,.59-.09,.88-.01,.09-.05,.17-.04,.28,.13-.13,.26-.27,.39-.4,.35-.36,.69-.72,1.04-1.08,.07-.08,.17-.22,.29-.11,.12,.11,.06,.24-.04,.35-.44,.49-.87,.99-1.34,1.45-.38,.37-.78,.72-1.21,1.03-.68,.49-1.44,.73-2.28,.59-.47-.08-.88-.27-1.04-.78-.08-.25-.12-.5,.01-.75,.17-.32,.45-.49,.8-.45,.28,.03,.45,.29,.37,.57-.06,.21-.15,.41-.22,.62-.08,.27-.03,.34,.25,.35,.32,.02,.56-.13,.77-.33,.41-.38,.67-.86,.91-1.36,.26-.54,.43-1.12,.52-1.71,.1-.65,.12-1.31,.06-1.97,0-.03-.02-.05-.05-.1-.39,.41-.76,.81-1.13,1.21-.49,.54-1.01,1.06-1.46,1.63-.48,.6-1.02,1.12-1.56,1.66-.46,.46-.94,.9-1.51,1.22-.19,.11-.4,.21-.61,.23-.56,.05-1.03-.4-1.1-1.03-.03-.32-.04-.64-.06-.97-.1,.11-.22,.23-.33,.35-.51,.53-1.03,1.04-1.67,1.4-.27,.15-.55,.27-.87,.27-.64,0-1.19-.38-1.27-1.17-.04-.36,.01-.71,.15-1.05,.27-.7,.65-1.35,1.04-1.99,.06-.1,.12-.2,.15-.32-.16,.17-.32,.33-.48,.51-.37,.42-.73,.84-1.11,1.25-.5,.52-1.09,.86-1.83,.93-.2,.02-.39,.06-.59,0-.14-.04-.24,.02-.34,.12-.31,.3-.62,.59-.95,.87-.44,.37-.93,.65-1.49,.8-.85,.22-1.59-.11-1.88-.98-.11-.31-.15-.64-.17-.97-.04-.41,0-.81,.08-1.28-.14,.17-.24,.31-.35,.42-.52,.53-1.05,1.07-1.58,1.59-.29,.28-.59,.53-.91,.78-.18,.14-.38,.25-.58,.37-.5,.31-1.18,.02-1.39-.55-.18-.5-.22-1.01-.08-1.53,.13-.49,.37-.93,.66-1.33,.36-.5,.75-.99,1.12-1.48,.2-.27,.39-.56,.57-.84,.05-.09,.12-.19,.03-.3-.1-.12-.23-.1-.36-.06-.32,.11-.58,.31-.82,.54-.58,.57-1.18,1.14-1.71,1.76-.98,1.15-1.91,2.33-2.87,3.49-.07,.08-.16,.17-.25,.19-.5,.06-1.01,.1-1.54,.16,.02-.08,.01-.12,.03-.15,.67-1,1.35-2,2.02-3.01,.45-.67,.89-1.35,1.33-2.03,.13-.2,.22-.42,.3-.65,.07-.21-.06-.37-.28-.32-.15,.03-.31,.09-.43,.19-.31,.25-.63,.49-.9,.78-.74,.77-1.47,1.55-2.17,2.35-.71,.81-1.39,1.65-2.07,2.48-.13,.15-.26,.22-.46,.24-.41,.02-.82,.06-1.22,.1-.05,0-.09,0-.15-.01,0-.04,0-.08,.02-.1,.71-1.06,1.43-2.12,2.14-3.18,.4-.59,.79-1.18,1.17-1.77,.13-.21,.25-.43,.34-.66,.12-.31-.02-.47-.34-.4-.17,.04-.35,.11-.49,.21-.37,.28-.73,.56-1.06,.88-.62,.62-1.22,1.26-1.82,1.91-.3,.33-.57,.69-.88,1.02-.41,.42-.83,.83-1.27,1.22-.3,.27-.63,.52-.97,.75-.26,.17-.56,.26-.88,.26-.54,0-.93-.36-.96-.9-.02-.3,0-.61,0-.91-.12,.13-.26,.28-.4,.44-.43,.47-.91,.89-1.5,1.17-.27,.13-.56,.22-.86,.21-.46-.01-.8-.21-1.02-.61-.23-.41-.31-.86-.33-1.32-.02-.37,.03-.73,.05-1.1,0-.04,0-.07,0-.12q-.34,.24-.54,.04c.06-.08,.11-.18,.18-.26,.86-1.09,1.87-2.03,3.08-2.72,.69-.39,1.41-.63,2.22-.6,.66,.03,1.06,.41,1.07,1.07,0,.06,0,.11,.04,.19,.15-.21,.29-.41,.44-.62q.32-.47,.88-.5c.28-.02,.56-.04,.84-.06,.05,0,.11,.01,.19,.02-.02,.06-.03,.1-.05,.13-.89,1.4-1.79,2.79-2.67,4.19-.24,.38-.41,.8-.61,1.2-.01,.03-.02,.06-.03,.08-.05,.16-.09,.33,.07,.44,.14,.1,.31,.09,.45-.01,.35-.25,.71-.49,1.02-.78,.66-.59,1.31-1.2,1.94-1.83,.42-.42,.78-.91,1.18-1.35,.52-.59,1.07-1.16,1.7-1.64,.22-.17,.47-.3,.71-.44,.07-.04,.15-.07,.22-.09,.79-.18,1.2,.25,1.24,.96,.03,.6-.17,1.16-.42,1.69-.02,.04-.04,.09-.02,.17,.06-.07,.13-.14,.19-.21,.63-.71,1.24-1.43,1.99-2.02,.2-.16,.42-.31,.64-.44,.29-.17,.61-.23,.95-.16,.29,.06,.48,.23,.58,.5,.1,.25,.11,.5,.07,.77-.07,.5-.21,.97-.45,1.42-.03,.06-.06,.12-.05,.22,.1-.1,.19-.21,.29-.31,.58-.58,1.15-1.16,1.75-1.72,.28-.26,.61-.48,.93-.7,.18-.13,.39-.2,.62-.2,.37,0,.63,.17,.77,.51,.13,.31,.16,.63,.08,.97-.15,.59-.45,1.11-.78,1.61-.42,.64-.86,1.27-1.28,1.92-.12,.18-.21,.39-.31,.58-.04,.08-.07,.17-.08,.25-.05,.33,.17,.52,.48,.41,.42-.14,.75-.42,1.06-.72,.67-.63,1.32-1.28,1.97-1.93,.1-.1,.18-.24,.27-.36,.58-.73,1.21-1.41,1.92-2.01,.6-.5,1.25-.92,2.02-1.14,.5-.14,1-.19,1.51-.05,.5,.14,.81,.49,.94,.99,.14,.55,.07,1.09-.12,1.61-.24,.63-.6,1.19-1.02,1.76,.28,.08,.53,.1,.79,.01,.59-.19,1.04-.58,1.45-1.02,.72-.79,1.43-1.59,2.14-2.38,.2-.22,.4-.45,.61-.66,.07-.07,.18-.13,.28-.14,.49-.04,.97-.06,1.46-.09,.02,0,.04,.01,.08,.03-.02,.06-.04,.12-.07,.17-.89,1.4-1.79,2.79-2.67,4.19-.19,.29-.34,.61-.5,.92-.05,.09-.08,.18-.11,.28-.13,.43,.05,.63,.5,.55,.4-.07,.75-.26,1.08-.5,.5-.37,.93-.81,1.34-1.28,1.06-1.23,1.94-2.59,2.76-3.98,.14-.23,.28-.31,.54-.31,.36,0,.71-.05,1.07-.07,.05,0,.1,0,.18,0Zm-10.44,1.49c0-.1,0-.2,0-.3-.04-.68-.49-1.01-1.15-.82-.32,.09-.61,.25-.85,.48-.99,.92-1.71,2.02-2.18,3.29-.17,.47-.26,.96-.21,1.47,.04,.32,.23,.48,.55,.51,.38,.03,.68-.13,.98-.31,1-.62,1.74-1.48,2.31-2.5,.31-.56,.55-1.15,.54-1.81Zm-27.54,3.82c0,.1,0,.2,0,.3,.02,.31,.19,.48,.5,.47,.17,0,.34-.05,.49-.12,.4-.17,.74-.43,1.04-.74,.35-.37,.7-.74,1.03-1.13,.53-.64,.99-1.32,1.28-2.11,.12-.34,.21-.68,.2-1.05,0-.36-.2-.59-.56-.61-.22,0-.46,.02-.68,.08-.5,.14-.9,.47-1.25,.84-.67,.72-1.21,1.53-1.63,2.42-.24,.51-.44,1.05-.43,1.63Z"/>
        <path class="cls-1" d="M11.5,50.84c-.07,.11-.14,.23-.21,.35-.43,.82-.74,1.68-.93,2.58-.2,.97-.27,1.96-.04,2.94,.2,.86,.66,1.55,1.4,2.05,.63,.42,1.32,.7,2.05,.89,1.32,.34,2.66,.4,4.01,.28,2.19-.2,4.25-.84,6.22-1.81,1.08-.53,2.09-1.16,3.07-1.86,.18-.13,.38-.22,.46-.45,.04-.1,.14-.14,.25-.08,.05,.03,.11,.04,.17,.06-.08,.14-.17,.27-.23,.41-.24,.56-.02,1.06,.5,1.28,.41,.18,.84,.18,1.26,.11,1.24-.21,2.34-.78,3.36-1.49,.3-.21,.6-.15,.92-.15,.06,0,.12,.08,.21,.14-1.59,2.42-3.16,4.83-4.73,7.23,0,0,.01,.02,.02,.03,.03-.02,.06-.04,.09-.07,.04-.03,.07-.07,.11-.11,1.17-1.21,2.33-2.45,3.53-3.63,.77-.76,1.61-1.46,2.57-1.99,.29-.16,.59-.29,.91-.37,.79-.22,1.37,.23,1.37,1.06,0,.5-.14,.97-.35,1.41-.35,.74-.73,1.46-1.11,2.19-.3,.58-.6,1.15-.89,1.73-.08,.17-.12,.36-.14,.55-.03,.2,.05,.27,.26,.24,.34-.04,.62-.23,.89-.4,.93-.6,1.78-1.32,2.57-2.1,.03-.03,.08-.06,.11-.08,.25,.16,.27,.23,.1,.38-.87,.79-1.76,1.57-2.77,2.19-.38,.23-.76,.43-1.2,.51-.45,.09-.78-.18-.8-.64-.02-.37,.06-.72,.22-1.04,.29-.6,.6-1.19,.91-1.79,.35-.68,.71-1.36,1.03-2.06,.14-.29,.2-.62,.29-.94,.03-.12,.03-.26,.02-.39-.02-.36-.25-.52-.6-.41-.22,.07-.43,.16-.63,.27-.59,.33-1.12,.77-1.63,1.21-1.23,1.07-2.37,2.23-3.49,3.41-.7,.74-1.45,1.44-2.15,2.17-.29,.3-.63,.23-.98,.22-.06,0-.11-.07-.2-.13,1.73-2.64,3.46-5.28,5.18-7.91,0-.01-.02-.02-.03-.03-.22,.11-.43,.22-.65,.34-.62,.34-1.28,.6-1.98,.76-.49,.11-.99,.17-1.48,.03-.52-.15-.92-.45-1.05-1-.04-.17-.03-.35-.04-.56-.21,.13-.41,.26-.6,.38-1.54,.99-3.14,1.85-4.85,2.52-1.26,.49-2.55,.84-3.88,1.07-1.04,.17-2.09,.19-3.13,.13-1.21-.07-2.38-.37-3.46-.95-1.11-.59-1.74-1.49-1.95-2.74-.2-1.19,0-2.32,.33-3.45,.29-1.01,.76-1.93,1.34-2.79,.02-.02,.03-.05,.05-.09-.13-.2-.27-.41-.4-.62-.38-.61-.55-1.28-.59-1.98-.04-.74,.05-1.47,.33-2.17,.22-.56,.51-1.06,.91-1.51,.84-.94,1.88-1.57,3.1-1.89,1.02-.27,2.06-.31,3.09-.11,.84,.16,1.62,.49,2.28,1.07,.63,.55,.98,1.24,1.04,2.08,.09,1.28-.42,2.29-1.39,3.09-.74,.61-1.57,1.02-2.52,1.18-1.22,.21-2.4,.07-3.51-.49-.12-.06-.24-.15-.38-.24-.51,.45-.95,.97-1.34,1.6,.24,.18,.47,.37,.72,.52,.81,.49,1.71,.76,2.65,.88,1.02,.13,2.03,.09,3.04-.07,1.7-.28,3.22-.96,4.53-2.08,1.22-1.05,2.18-2.3,3-3.67,.18-.3,.34-.6,.48-.95-.22,.08-.44,.16-.65,.26-.86,.4-1.63,.92-2.34,1.55-.24,.21-.48,.42-.73,.62-.07,.06-.16,.11-.25,.16-.12-.14-.07-.25,0-.34,.19-.23,.37-.47,.59-.67,1.03-.97,2.25-1.64,3.59-2.1,.15-.05,.25-.14,.34-.27,.5-.8,.99-1.62,1.53-2.4,.85-1.24,1.84-2.36,2.96-3.36,.27-.24,.57-.47,.88-.67,.18-.12,.4-.18,.6-.25,.04-.02,.1,.02,.16,.04-.02,.05-.02,.12-.05,.15-1.76,1.74-2.96,3.85-4.01,6.06-.05,.1-.1,.21-.15,.34,1.14-.15,2.18-.5,3.18-1,.29-.14,.57-.29,.85-.44,.07-.04,.14-.09,.22-.09,.08,0,.18,.02,.23,.07,.02,.02,0,.15-.05,.2-.33,.44-.67,.87-1,1.31-.59,.81-1.12,1.65-1.51,2.58-.13,.32-.35,.55-.64,.73-.32,.19-.64,.36-1.01,.43-.25,.05-.37-.05-.33-.3,.03-.15,.09-.31,.17-.44,.3-.58,.7-1.09,1.11-1.6,.44-.54,.9-1.07,1.35-1.6,.01-.01,.01-.04,.03-.08-.07,.02-.12,.03-.17,.04-.78,.28-1.57,.53-2.4,.59-.21,.02-.34,.1-.45,.29-.58,1.05-1.26,2.04-2.05,2.94-1.16,1.34-2.51,2.46-4.11,3.24-1.04,.51-2.14,.86-3.29,1.05-.87,.15-1.74,.22-2.62,.2-1.26-.02-2.48-.24-3.61-.83-.35-.18-.67-.42-1.03-.64Zm1.94-2.2c.51,.25,1.03,.43,1.58,.52,1.31,.22,2.54,.02,3.68-.67,.95-.57,1.59-1.37,1.62-2.53,.03-.94-.29-1.72-1.1-2.25-.46-.3-.96-.47-1.5-.56-1.08-.17-2.13-.05-3.16,.26-.86,.26-1.63,.7-2.31,1.29-1.02,.88-1.64,1.93-1.59,3.32,.02,.43,.1,.83,.25,1.22,.11,.29,.25,.58,.51,.81,.57-.69,1.2-1.27,2.04-1.64-.01,.08-.02,.14-.03,.23Z"/>
        <path class="cls-7" d="M46.46,30.08c-.11-.43-.22-.83-.33-1.27,.47-.13,.93-.26,1.42-.4-.08-.31-.15-.6-.23-.93,.08-.03,.16-.06,.24-.08,.83-.12,1.66-.23,2.48-.35,.92-.13,1.84-.25,2.76-.37,.84-.11,1.68-.21,2.52-.32,.37-.05,.68,.07,.88,.38,.13,.19,.23,.4,.3,.61,.09,.26,.17,.54,.21,.81,.08,.52-.02,.93-.61,1.19-.6,.27-1.2,.54-1.81,.79-1.3,.54-2.6,1.08-3.9,1.62-.56,.23-1.12,.45-1.72,.69-.09-.31-.18-.61-.27-.94-.48,.12-.93,.24-1.42,.37-.12-.43-.24-.84-.36-1.27-.57,.15-1.12,.3-1.66,.45-.86,.23-1.71,.47-2.57,.7-.18,.05-.3,.12-.39,.28-.43,.73-1.09,1.05-1.92,1.05-.35,0-.7,.03-1.05,.05-.33,.02-.62,.13-.85,.38-.02,.02-.05,.03-.08,.04,0,0-.02,0-.06-.01-.05-.26,.02-.52,.08-.77,.24-.9,.88-1.41,1.76-1.6,.61-.14,1.22-.13,1.83,.06,.13,.04,.3,.05,.44,.01,.73-.19,1.46-.39,2.19-.59,.64-.18,1.29-.35,1.93-.53,.06-.02,.11-.04,.2-.07Zm9.66-1.68c-.05-.38-.12-.85-.41-1.24-.2-.27-.45-.4-.8-.34-.59,.1-1.18,.19-1.77,.29-.77,.13-1.55,.28-2.32,.41-.79,.13-1.59,.26-2.39,.39-.09,.01-.18,.02-.26,.06-.05,.02-.1,.11-.1,.16,0,.05,.06,.12,.12,.15,.05,.02,.12,.01,.18,0,.7-.11,1.4-.22,2.09-.34,.79-.13,1.59-.27,2.38-.41,.7-.12,1.39-.24,2.09-.37,.19-.03,.34,.02,.45,.16,.08,.1,.14,.22,.2,.33,.13,.26,.18,.55,.19,.84,.01,.26,.07,.35,.19,.34,.12-.01,.16-.1,.16-.42Z"/>
        <path class="cls-10" d="M71.56,59.1c.1-.15,.19-.27,.28-.41,.79-1.21,1.83-2.16,3-2.97,1.28-.88,2.64-1.64,4.02-2.36,1.32-.68,2.64-1.37,3.94-2.07,1.35-.73,2.65-1.55,3.84-2.54,1.37-1.15,2.53-2.49,3.39-4.07,.42-.77,.74-1.59,.96-2.44,.15-.57,.25-1.16,.25-1.74,0-.54,.03-1.1-.1-1.64-.05-.24-.03-.24,.19-.36,.19-.1,.39-.2,.61-.31,.02,.09,.05,.16,.06,.23,.05,.44,.13,.89,.15,1.33,.01,.36-.04,.72-.09,1.07-.1,.73-.29,1.44-.55,2.13-.4,1.03-.94,1.98-1.59,2.87-1.04,1.42-2.33,2.57-3.76,3.58-1.37,.96-2.83,1.8-4.31,2.58-1.21,.64-2.44,1.26-3.65,1.91-1.1,.58-2.19,1.2-3.18,1.96-1.26,.97-2.26,2.16-2.97,3.6,.24,.25,.49,.49,.71,.75,.56,.66,.95,1.41,1.09,2.26,.06,.39-.08,.74-.41,.97-.45,.3-.92,.56-1.44,.72-.65,.21-1.53-.25-1.8-.68-.2-.32-.22-.67-.1-1.01,.21-.61,.46-1.21,.7-1.81,.1-.24,.22-.47,.33-.72-.04-.05-.08-.11-.14-.15-1.05-.8-2.22-1.25-3.55-1.23-.8,.01-1.57,.23-2.32,.53-1.65,.67-3.1,1.63-4.41,2.83-.33,.3-.64,.62-1.03,.86-.63,.37-1.31,.57-2.02,.71-.18,.04-.37,.09-.57,.14,.02,.13,.04,.25,.05,.37,.06,.54,0,1.04-.45,1.42-.14,.12-.31,.22-.49,.28-.46,.16-.96-.19-1.02-.68-.07-.52,.21-.88,.57-1.18,.12-.1,.26-.19,.4-.25,.15-.07,.2-.17,.17-.33-.04-.22-.06-.43-.11-.65-.09-.41-.06-.82,.04-1.21,.08-.28,.24-.51,.49-.65,.1-.06,.22-.08,.34-.08,.16,0,.24,.08,.25,.23,0,.12-.02,.24-.06,.34-.05,.12-.12,.24-.21,.32-.23,.18-.25,.42-.21,.67,.05,.34,.12,.68,.18,1.03,1.01-.16,1.97-.36,2.78-.95,.43-.32,.84-.67,1.27-.99,1.66-1.23,3.44-2.25,5.4-2.92,.81-.28,1.64-.41,2.5-.29,.84,.12,1.62,.42,2.34,.87,.07,.05,.15,.09,.25,.14Zm.04,1.22c-.12,.28-.24,.53-.34,.79-.15,.37-.3,.74-.36,1.13-.06,.41,.02,.77,.37,1.04,.28,.22,.59,.34,.92,.39,.55,.09,.8-.16,.77-.72,0-.04,0-.08-.01-.12-.14-.99-.65-1.78-1.35-2.52Zm-15.22,3.53c-.35,.15-.6,.36-.78,.66-.11,.19-.15,.41-.03,.62,.11,.2,.36,.25,.53,.1,.06-.06,.12-.13,.16-.21,.15-.36,.22-.74,.13-1.17Z"/>
        <path class="cls-4" d="M37.52,35.63c-.15-.75,.2-1.31,.47-1.93,.06,.08,.12,.13,.14,.18,.09,.39,.18,.77,.25,1.17,.02,.14-.03,.29-.05,.44,0,.05-.04,.11-.02,.14,.16,.26-.01,.44-.18,.56-.31,.22-.63,.43-.97,.59-.8,.37-1.65,.54-2.53,.5-.61-.03-1.21-.06-1.82-.11-.87-.08-1.74-.19-2.62-.27-1.2-.11-2.41-.2-3.62-.15-1.34,.05-2.66,.24-3.92,.75-.83,.34-1.61,.76-2.21,1.45-.43,.49-.66,1.05-.67,1.72,0,.56,.23,.98,.67,1.3,.47,.35,1.02,.5,1.6,.52,2.01,.06,3.6-.81,4.92-2.24,.55-.6,1.08-1.23,1.62-1.85,.15,.07,.14,.19,.1,.3-.09,.25-.17,.51-.3,.75-.44,.81-.97,1.56-1.62,2.22-.85,.87-1.86,1.48-3.07,1.69-.47,.08-.94,.1-1.43,.04-.57-.07-1.11-.23-1.62-.49-.71-.37-1.18-.91-1.32-1.71-.09-.55,.02-1.07,.25-1.57,.34-.75,.88-1.32,1.55-1.79,1.01-.71,2.16-1.12,3.35-1.4,.52-.13,1.05-.23,1.59-.3,.8-.1,1.61-.17,2.41-.21,.96-.05,1.92-.06,2.87-.06,.82,0,1.64,.07,2.45,.05,.87-.02,1.73-.1,2.6-.16,.37-.02,.73-.06,1.12-.09Z"/>
        <path class="cls-3" d="M55.55,61.76c.26,.16,.27,.21,.07,.4-.55,.56-1.16,1.03-1.8,1.48-.72,.5-1.48,.95-2.3,1.27-.36,.14-.73,.28-1.13,.27-.55-.02-.86-.34-.87-.89-.02-.59,.2-1.12,.45-1.63,.48-.99,1.12-1.89,1.81-2.74,.44-.55,.92-1.06,1.44-1.52,.84-.73,1.73-1.39,2.82-1.7,.32-.09,.63-.19,.97-.15,.16,.02,.32,.05,.46,.11,.36,.16,.49,.5,.35,.87-.16,.41-.45,.71-.76,.98-.78,.69-1.7,1.14-2.66,1.52-.67,.26-1.35,.5-2.05,.64-.08,.02-.17,.08-.22,.14-.62,.87-1.23,1.75-1.62,2.76-.09,.23-.13,.48-.14,.73-.02,.31,.16,.48,.46,.43,.3-.05,.6-.13,.89-.25,.86-.37,1.63-.88,2.37-1.45,.45-.35,.87-.74,1.3-1.11,.06-.05,.12-.1,.18-.15Zm-2.97-1.57c.92-.19,1.78-.49,2.61-.88,.66-.32,1.27-.7,1.8-1.21,.16-.16,.31-.34,.42-.54,.19-.33,.06-.54-.32-.54-.46,0-.88,.17-1.27,.38-.94,.5-1.75,1.18-2.48,1.95-.26,.27-.5,.56-.75,.84Z"/>
        <path class="cls-5" d="M40.95,63.32c-.23,.06-.43,.15-.63,.17-.44,.05-.78-.27-.78-.71,0-.53,.22-.97,.61-1.32,.22-.2,.48-.35,.78-.42,.5-.12,.81,0,1.07,.46,.01,.02,.04,.04,.09,.08,.14-.38,.44-.38,.76-.36,.05,0,.1,0,.15,0,.19,.03,.25,.16,.15,.32-.19,.29-.41,.57-.59,.86-.29,.48-.57,.96-.84,1.45-.08,.15-.08,.34-.12,.49,.16,.14,.29,.09,.4,.04,.25-.11,.49-.22,.72-.36,.73-.44,1.39-.97,2.02-1.55,.26-.24,.53-.48,.79-.72,.24,.16,.25,.25,.07,.42-.31,.28-.62,.57-.94,.83-.54,.43-1.08,.85-1.65,1.24-.33,.22-.7,.38-1.07,.53-.17,.07-.37,.08-.55,.06-.37-.04-.61-.33-.6-.7,0-.15,.04-.3,.07-.44,.03-.12,.07-.24,.11-.37Zm-.68-.53c-.01,.21,.07,.3,.28,.26,.13-.03,.27-.08,.39-.14,.35-.18,.56-.5,.76-.82,.1-.17,.03-.46-.13-.57-.06-.04-.16-.06-.22-.03-.55,.23-.87,.67-1.07,1.21,0,.03,0,.06,0,.09Z"/>
        <path class="cls-11" d="M45.88,64.31c.19,.12,.37,.04,.55-.03,.63-.25,1.17-.64,1.69-1.06,.53-.43,1.04-.91,1.55-1.36,.04-.03,.07-.07,.11-.09,.25,.13,.28,.22,.11,.37-.93,.85-1.86,1.69-2.97,2.31-.34,.19-.69,.35-1.09,.39-.48,.05-.84-.28-.81-.76,.02-.35,.15-.69,.33-.98,.36-.58,.74-1.13,1.12-1.7,.04-.05,.1-.11,.16-.12,.21-.01,.42-.02,.63,0,.16,.02,.2,.15,.11,.29-.19,.27-.4,.52-.58,.8-.29,.46-.56,.94-.84,1.41-.1,.16-.12,.34-.07,.54Z"/>
        <path class="cls-6" d="M47.35,59.98c.24,0,.54,.28,.55,.51,0,.26-.31,.6-.57,.6-.22,0-.5-.31-.5-.56,0-.28,.26-.55,.53-.55Z"/>
      </g>
      <g>
        <path class="cls-8" d="M69.87,45.7c-.03,.08-.04,.14-.08,.2-.9,1.43-1.81,2.85-2.71,4.28-.19,.29-.35,.6-.5,.92-.07,.14-.09,.31-.09,.46,0,.24,.17,.37,.4,.29,.19-.07,.37-.15,.53-.27,.3-.23,.6-.47,.87-.73,.55-.53,1.09-1.06,1.61-1.61,.48-.51,.92-1.05,1.39-1.57,.53-.6,1.07-1.18,1.6-1.78,.09-.1,.16-.22,.24-.34,.12-.18,.22-.38,.36-.55,.15-.18,.35-.29,.6-.27,.36,.03,.56,.38,.38,.69-.08,.13-.21,.23-.33,.33-.07,.06-.16,.08-.24,.12-.25,.16-.43,.37-.4,.68,.03,.37,.06,.73,.12,1.1,.09,.54,.23,1.07,.29,1.61,.03,.29-.05,.59-.09,.88-.01,.09-.05,.17-.04,.28,.13-.13,.26-.27,.39-.4,.35-.36,.69-.72,1.04-1.08,.07-.08,.17-.22,.29-.11,.12,.11,.06,.24-.04,.35-.44,.49-.87,.99-1.34,1.45-.38,.37-.78,.72-1.21,1.03-.68,.49-1.44,.73-2.28,.59-.47-.08-.88-.27-1.04-.78-.08-.25-.12-.5,.01-.75,.17-.32,.45-.49,.8-.45,.28,.03,.45,.29,.37,.57-.06,.21-.15,.41-.22,.62-.08,.27-.03,.34,.25,.35,.32,.02,.56-.13,.77-.33,.41-.38,.67-.86,.91-1.36,.26-.54,.43-1.12,.52-1.71,.1-.65,.12-1.31,.06-1.97,0-.03-.02-.05-.05-.1-.39,.41-.76,.81-1.13,1.21-.49,.54-1.01,1.06-1.46,1.63-.48,.6-1.02,1.12-1.56,1.66-.46,.46-.94,.9-1.51,1.22-.19,.11-.4,.21-.61,.23-.56,.05-1.03-.4-1.1-1.03-.03-.32-.04-.64-.06-.97-.1,.11-.22,.23-.33,.35-.51,.53-1.03,1.04-1.67,1.4-.27,.15-.55,.27-.87,.27-.64,0-1.19-.38-1.27-1.17-.04-.36,.01-.71,.15-1.05,.27-.7,.65-1.35,1.04-1.99,.06-.1,.12-.2,.15-.32-.16,.17-.32,.33-.48,.51-.37,.42-.73,.84-1.11,1.25-.5,.52-1.09,.86-1.83,.93-.2,.02-.39,.06-.59,0-.14-.04-.24,.02-.34,.12-.31,.3-.62,.59-.95,.87-.44,.37-.93,.65-1.49,.8-.85,.22-1.59-.11-1.88-.98-.11-.31-.15-.64-.17-.97-.04-.41,0-.81,.08-1.28-.14,.17-.24,.31-.35,.42-.52,.53-1.05,1.07-1.58,1.59-.29,.28-.59,.53-.91,.78-.18,.14-.38,.25-.58,.37-.5,.31-1.18,.02-1.39-.55-.18-.5-.22-1.01-.08-1.53,.13-.49,.37-.93,.66-1.33,.36-.5,.75-.99,1.12-1.48,.2-.27,.39-.56,.57-.84,.05-.09,.12-.19,.03-.3-.1-.12-.23-.1-.36-.06-.32,.11-.58,.31-.82,.54-.58,.57-1.18,1.14-1.71,1.76-.98,1.15-1.91,2.33-2.87,3.49-.07,.08-.16,.17-.25,.19-.5,.06-1.01,.1-1.54,.16,.02-.08,.01-.12,.03-.15,.67-1,1.35-2,2.02-3.01,.45-.67,.89-1.35,1.33-2.03,.13-.2,.22-.42,.3-.65,.07-.21-.06-.37-.28-.32-.15,.03-.31,.09-.43,.19-.31,.25-.63,.49-.9,.78-.74,.77-1.47,1.55-2.17,2.35-.71,.81-1.39,1.65-2.07,2.48-.13,.15-.26,.22-.46,.24-.41,.02-.82,.06-1.22,.1-.05,0-.09,0-.15-.01,0-.04,0-.08,.02-.1,.71-1.06,1.43-2.12,2.14-3.18,.4-.59,.79-1.18,1.17-1.77,.13-.21,.25-.43,.34-.66,.12-.31-.02-.47-.34-.4-.17,.04-.35,.11-.49,.21-.37,.28-.73,.56-1.06,.88-.62,.62-1.22,1.26-1.82,1.91-.3,.33-.57,.69-.88,1.02-.41,.42-.83,.83-1.27,1.22-.3,.27-.63,.52-.97,.75-.26,.17-.56,.26-.88,.26-.54,0-.93-.36-.96-.9-.02-.3,0-.61,0-.91-.12,.13-.26,.28-.4,.44-.43,.47-.91,.89-1.5,1.17-.27,.13-.56,.22-.86,.21-.46-.01-.8-.21-1.02-.61-.23-.41-.31-.86-.33-1.32-.02-.37,.03-.73,.05-1.1,0-.04,0-.07,0-.12q-.34,.24-.54,.04c.06-.08,.11-.18,.18-.26,.86-1.09,1.87-2.03,3.08-2.72,.69-.39,1.41-.63,2.22-.6,.66,.03,1.06,.41,1.07,1.07,0,.06,0,.11,.04,.19,.15-.21,.29-.41,.44-.62q.32-.47,.88-.5c.28-.02,.56-.04,.84-.06,.05,0,.11,.01,.19,.02-.02,.06-.03,.1-.05,.13-.89,1.4-1.79,2.79-2.67,4.19-.24,.38-.41,.8-.61,1.2-.01,.03-.02,.06-.03,.08-.05,.16-.09,.33,.07,.44,.14,.1,.31,.09,.45-.01,.35-.25,.71-.49,1.02-.78,.66-.59,1.31-1.2,1.94-1.83,.42-.42,.78-.91,1.18-1.35,.52-.59,1.07-1.16,1.7-1.64,.22-.17,.47-.3,.71-.44,.07-.04,.15-.07,.22-.09,.79-.18,1.2,.25,1.24,.96,.03,.6-.17,1.16-.42,1.69-.02,.04-.04,.09-.02,.17,.06-.07,.13-.14,.19-.21,.63-.71,1.24-1.43,1.99-2.02,.2-.16,.42-.31,.64-.44,.29-.17,.61-.23,.95-.16,.29,.06,.48,.23,.58,.5,.1,.25,.11,.5,.07,.77-.07,.5-.21,.97-.45,1.42-.03,.06-.06,.12-.05,.22,.1-.1,.19-.21,.29-.31,.58-.58,1.15-1.16,1.75-1.72,.28-.26,.61-.48,.93-.7,.18-.13,.39-.2,.62-.2,.37,0,.63,.17,.77,.51,.13,.31,.16,.63,.08,.97-.15,.59-.45,1.11-.78,1.61-.42,.64-.86,1.27-1.28,1.92-.12,.18-.21,.39-.31,.58-.04,.08-.07,.17-.08,.25-.05,.33,.17,.52,.48,.41,.42-.14,.75-.42,1.06-.72,.67-.63,1.32-1.28,1.97-1.93,.1-.1,.18-.24,.27-.36,.58-.73,1.21-1.41,1.92-2.01,.6-.5,1.25-.92,2.02-1.14,.5-.14,1-.19,1.51-.05,.5,.14,.81,.49,.94,.99,.14,.55,.07,1.09-.12,1.61-.24,.63-.6,1.19-1.02,1.76,.28,.08,.53,.1,.79,.01,.59-.19,1.04-.58,1.45-1.02,.72-.79,1.43-1.59,2.14-2.38,.2-.22,.4-.45,.61-.66,.07-.07,.18-.13,.28-.14,.49-.04,.97-.06,1.46-.09,.02,0,.04,.01,.08,.03-.02,.06-.04,.12-.07,.17-.89,1.4-1.79,2.79-2.67,4.19-.19,.29-.34,.61-.5,.92-.05,.09-.08,.18-.11,.28-.13,.43,.05,.63,.5,.55,.4-.07,.75-.26,1.08-.5,.5-.37,.93-.81,1.34-1.28,1.06-1.23,1.94-2.59,2.76-3.98,.14-.23,.28-.31,.54-.31,.36,0,.71-.05,1.07-.07,.05,0,.1,0,.18,0Zm-10.44,1.49c0-.1,0-.2,0-.3-.04-.68-.49-1.01-1.15-.82-.32,.09-.61,.25-.85,.48-.99,.92-1.71,2.02-2.18,3.29-.17,.47-.26,.96-.21,1.47,.04,.32,.23,.48,.55,.51,.38,.03,.68-.13,.98-.31,1-.62,1.74-1.48,2.31-2.5,.31-.56,.55-1.15,.54-1.81Zm-27.54,3.82c0,.1,0,.2,0,.3,.02,.31,.19,.48,.5,.47,.17,0,.34-.05,.49-.12,.4-.17,.74-.43,1.04-.74,.35-.37,.7-.74,1.03-1.13,.53-.64,.99-1.32,1.28-2.11,.12-.34,.21-.68,.2-1.05,0-.36-.2-.59-.56-.61-.22,0-.46,.02-.68,.08-.5,.14-.9,.47-1.25,.84-.67,.72-1.21,1.53-1.63,2.42-.24,.51-.44,1.05-.43,1.63Z"/>
        <path class="cls-8" d="M11.5,50.84c-.07,.11-.14,.23-.21,.35-.43,.82-.74,1.68-.93,2.58-.2,.97-.27,1.96-.04,2.94,.2,.86,.66,1.55,1.4,2.05,.63,.42,1.32,.7,2.05,.89,1.32,.34,2.66,.4,4.01,.28,2.19-.2,4.25-.84,6.22-1.81,1.08-.53,2.09-1.16,3.07-1.86,.18-.13,.38-.22,.46-.45,.04-.1,.14-.14,.25-.08,.05,.03,.11,.04,.17,.06-.08,.14-.17,.27-.23,.41-.24,.56-.02,1.06,.5,1.28,.41,.18,.84,.18,1.26,.11,1.24-.21,2.34-.78,3.36-1.49,.3-.21,.6-.15,.92-.15,.06,0,.12,.08,.21,.14-1.59,2.42-3.16,4.83-4.73,7.23,0,0,.01,.02,.02,.03,.03-.02,.06-.04,.09-.07,.04-.03,.07-.07,.11-.11,1.17-1.21,2.33-2.45,3.53-3.63,.77-.76,1.61-1.46,2.57-1.99,.29-.16,.59-.29,.91-.37,.79-.22,1.37,.23,1.37,1.06,0,.5-.14,.97-.35,1.41-.35,.74-.73,1.46-1.11,2.19-.3,.58-.6,1.15-.89,1.73-.08,.17-.12,.36-.14,.55-.03,.2,.05,.27,.26,.24,.34-.04,.62-.23,.89-.4,.93-.6,1.78-1.32,2.57-2.1,.03-.03,.08-.06,.11-.08,.25,.16,.27,.23,.1,.38-.87,.79-1.76,1.57-2.77,2.19-.38,.23-.76,.43-1.2,.51-.45,.09-.78-.18-.8-.64-.02-.37,.06-.72,.22-1.04,.29-.6,.6-1.19,.91-1.79,.35-.68,.71-1.36,1.03-2.06,.14-.29,.2-.62,.29-.94,.03-.12,.03-.26,.02-.39-.02-.36-.25-.52-.6-.41-.22,.07-.43,.16-.63,.27-.59,.33-1.12,.77-1.63,1.21-1.23,1.07-2.37,2.23-3.49,3.41-.7,.74-1.45,1.44-2.15,2.17-.29,.3-.63,.23-.98,.22-.06,0-.11-.07-.2-.13,1.73-2.64,3.46-5.28,5.18-7.91,0-.01-.02-.02-.03-.03-.22,.11-.43,.22-.65,.34-.62,.34-1.28,.6-1.98,.76-.49,.11-.99,.17-1.48,.03-.52-.15-.92-.45-1.05-1-.04-.17-.03-.35-.04-.56-.21,.13-.41,.26-.6,.38-1.54,.99-3.14,1.85-4.85,2.52-1.26,.49-2.55,.84-3.88,1.07-1.04,.17-2.09,.19-3.13,.13-1.21-.07-2.38-.37-3.46-.95-1.11-.59-1.74-1.49-1.95-2.74-.2-1.19,0-2.32,.33-3.45,.29-1.01,.76-1.93,1.34-2.79,.02-.02,.03-.05,.05-.09-.13-.2-.27-.41-.4-.62-.38-.61-.55-1.28-.59-1.98-.04-.74,.05-1.47,.33-2.17,.22-.56,.51-1.06,.91-1.51,.84-.94,1.88-1.57,3.1-1.89,1.02-.27,2.06-.31,3.09-.11,.84,.16,1.62,.49,2.28,1.07,.63,.55,.98,1.24,1.04,2.08,.09,1.28-.42,2.29-1.39,3.09-.74,.61-1.57,1.02-2.52,1.18-1.22,.21-2.4,.07-3.51-.49-.12-.06-.24-.15-.38-.24-.51,.45-.95,.97-1.34,1.6,.24,.18,.47,.37,.72,.52,.81,.49,1.71,.76,2.65,.88,1.02,.13,2.03,.09,3.04-.07,1.7-.28,3.22-.96,4.53-2.08,1.22-1.05,2.18-2.3,3-3.67,.18-.3,.34-.6,.48-.95-.22,.08-.44,.16-.65,.26-.86,.4-1.63,.92-2.34,1.55-.24,.21-.48,.42-.73,.62-.07,.06-.16,.11-.25,.16-.12-.14-.07-.25,0-.34,.19-.23,.37-.47,.59-.67,1.03-.97,2.25-1.64,3.59-2.1,.15-.05,.25-.14,.34-.27,.5-.8,.99-1.62,1.53-2.4,.85-1.24,1.84-2.36,2.96-3.36,.27-.24,.57-.47,.88-.67,.18-.12,.4-.18,.6-.25,.04-.02,.1,.02,.16,.04-.02,.05-.02,.12-.05,.15-1.76,1.74-2.96,3.85-4.01,6.06-.05,.1-.1,.21-.15,.34,1.14-.15,2.18-.5,3.18-1,.29-.14,.57-.29,.85-.44,.07-.04,.14-.09,.22-.09,.08,0,.18,.02,.23,.07,.02,.02,0,.15-.05,.2-.33,.44-.67,.87-1,1.31-.59,.81-1.12,1.65-1.51,2.58-.13,.32-.35,.55-.64,.73-.32,.19-.64,.36-1.01,.43-.25,.05-.37-.05-.33-.3,.03-.15,.09-.31,.17-.44,.3-.58,.7-1.09,1.11-1.6,.44-.54,.9-1.07,1.35-1.6,.01-.01,.01-.04,.03-.08-.07,.02-.12,.03-.17,.04-.78,.28-1.57,.53-2.4,.59-.21,.02-.34,.1-.45,.29-.58,1.05-1.26,2.04-2.05,2.94-1.16,1.34-2.51,2.46-4.11,3.24-1.04,.51-2.14,.86-3.29,1.05-.87,.15-1.74,.22-2.62,.2-1.26-.02-2.48-.24-3.61-.83-.35-.18-.67-.42-1.03-.64Zm1.94-2.2c.51,.25,1.03,.43,1.58,.52,1.31,.22,2.54,.02,3.68-.67,.95-.57,1.59-1.37,1.62-2.53,.03-.94-.29-1.72-1.1-2.25-.46-.3-.96-.47-1.5-.56-1.08-.17-2.13-.05-3.16,.26-.86,.26-1.63,.7-2.31,1.29-1.02,.88-1.64,1.93-1.59,3.32,.02,.43,.1,.83,.25,1.22,.11,.29,.25,.58,.51,.81,.57-.69,1.2-1.27,2.04-1.64-.01,.08-.02,.14-.03,.23Z"/>
        <path class="cls-8" d="M46.46,30.08c-.11-.43-.22-.83-.33-1.27,.47-.13,.93-.26,1.42-.4-.08-.31-.15-.6-.23-.93,.08-.03,.16-.06,.24-.08,.83-.12,1.66-.23,2.48-.35,.92-.13,1.84-.25,2.76-.37,.84-.11,1.68-.21,2.52-.32,.37-.05,.68,.07,.88,.38,.13,.19,.23,.4,.3,.61,.09,.26,.17,.54,.21,.81,.08,.52-.02,.93-.61,1.19-.6,.27-1.2,.54-1.81,.79-1.3,.54-2.6,1.08-3.9,1.62-.56,.23-1.12,.45-1.72,.69-.09-.31-.18-.61-.27-.94-.48,.12-.93,.24-1.42,.37-.12-.43-.24-.84-.36-1.27-.57,.15-1.12,.3-1.66,.45-.86,.23-1.71,.47-2.57,.7-.18,.05-.3,.12-.39,.28-.43,.73-1.09,1.05-1.92,1.05-.35,0-.7,.03-1.05,.05-.33,.02-.62,.13-.85,.38-.02,.02-.05,.03-.08,.04,0,0-.02,0-.06-.01-.05-.26,.02-.52,.08-.77,.24-.9,.88-1.41,1.76-1.6,.61-.14,1.22-.13,1.83,.06,.13,.04,.3,.05,.44,.01,.73-.19,1.46-.39,2.19-.59,.64-.18,1.29-.35,1.93-.53,.06-.02,.11-.04,.2-.07Zm9.66-1.68c-.05-.38-.12-.85-.41-1.24-.2-.27-.45-.4-.8-.34-.59,.1-1.18,.19-1.77,.29-.77,.13-1.55,.28-2.32,.41-.79,.13-1.59,.26-2.39,.39-.09,.01-.18,.02-.26,.06-.05,.02-.1,.11-.1,.16,0,.05,.06,.12,.12,.15,.05,.02,.12,.01,.18,0,.7-.11,1.4-.22,2.09-.34,.79-.13,1.59-.27,2.38-.41,.7-.12,1.39-.24,2.09-.37,.19-.03,.34,.02,.45,.16,.08,.1,.14,.22,.2,.33,.13,.26,.18,.55,.19,.84,.01,.26,.07,.35,.19,.34,.12-.01,.16-.1,.16-.42Z"/>
        <path class="cls-8" d="M71.56,59.1c.1-.15,.19-.27,.28-.41,.79-1.21,1.83-2.16,3-2.97,1.28-.88,2.64-1.64,4.02-2.36,1.32-.68,2.64-1.37,3.94-2.07,1.35-.73,2.65-1.55,3.84-2.54,1.37-1.15,2.53-2.49,3.39-4.07,.42-.77,.74-1.59,.96-2.44,.15-.57,.25-1.16,.25-1.74,0-.54,.03-1.1-.1-1.64-.05-.24-.03-.24,.19-.36,.19-.1,.39-.2,.61-.31,.02,.09,.05,.16,.06,.23,.05,.44,.13,.89,.15,1.33,.01,.36-.04,.72-.09,1.07-.1,.73-.29,1.44-.55,2.13-.4,1.03-.94,1.98-1.59,2.87-1.04,1.42-2.33,2.57-3.76,3.58-1.37,.96-2.83,1.8-4.31,2.58-1.21,.64-2.44,1.26-3.65,1.91-1.1,.58-2.19,1.2-3.18,1.96-1.26,.97-2.26,2.16-2.97,3.6,.24,.25,.49,.49,.71,.75,.56,.66,.95,1.41,1.09,2.26,.06,.39-.08,.74-.41,.97-.45,.3-.92,.56-1.44,.72-.65,.21-1.53-.25-1.8-.68-.2-.32-.22-.67-.1-1.01,.21-.61,.46-1.21,.7-1.81,.1-.24,.22-.47,.33-.72-.04-.05-.08-.11-.14-.15-1.05-.8-2.22-1.25-3.55-1.23-.8,.01-1.57,.23-2.32,.53-1.65,.67-3.1,1.63-4.41,2.83-.33,.3-.64,.62-1.03,.86-.63,.37-1.31,.57-2.02,.71-.18,.04-.37,.09-.57,.14,.02,.13,.04,.25,.05,.37,.06,.54,0,1.04-.45,1.42-.14,.12-.31,.22-.49,.28-.46,.16-.96-.19-1.02-.68-.07-.52,.21-.88,.57-1.18,.12-.1,.26-.19,.4-.25,.15-.07,.2-.17,.17-.33-.04-.22-.06-.43-.11-.65-.09-.41-.06-.82,.04-1.21,.08-.28,.24-.51,.49-.65,.1-.06,.22-.08,.34-.08,.16,0,.24,.08,.25,.23,0,.12-.02,.24-.06,.34-.05,.12-.12,.24-.21,.32-.23,.18-.25,.42-.21,.67,.05,.34,.12,.68,.18,1.03,1.01-.16,1.97-.36,2.78-.95,.43-.32,.84-.67,1.27-.99,1.66-1.23,3.44-2.25,5.4-2.92,.81-.28,1.64-.41,2.5-.29,.84,.12,1.62,.42,2.34,.87,.07,.05,.15,.09,.25,.14Zm.04,1.22c-.12,.28-.24,.53-.34,.79-.15,.37-.3,.74-.36,1.13-.06,.41,.02,.77,.37,1.04,.28,.22,.59,.34,.92,.39,.55,.09,.8-.16,.77-.72,0-.04,0-.08-.01-.12-.14-.99-.65-1.78-1.35-2.52Zm-15.22,3.53c-.35,.15-.6,.36-.78,.66-.11,.19-.15,.41-.03,.62,.11,.2,.36,.25,.53,.1,.06-.06,.12-.13,.16-.21,.15-.36,.22-.74,.13-1.17Z"/>
        <path class="cls-8" d="M37.52,35.63c-.15-.75,.2-1.31,.47-1.93,.06,.08,.12,.13,.14,.18,.09,.39,.18,.77,.25,1.17,.02,.14-.03,.29-.05,.44,0,.05-.04,.11-.02,.14,.16,.26-.01,.44-.18,.56-.31,.22-.63,.43-.97,.59-.8,.37-1.65,.54-2.53,.5-.61-.03-1.21-.06-1.82-.11-.87-.08-1.74-.19-2.62-.27-1.2-.11-2.41-.2-3.62-.15-1.34,.05-2.66,.24-3.92,.75-.83,.34-1.61,.76-2.21,1.45-.43,.49-.66,1.05-.67,1.72,0,.56,.23,.98,.67,1.3,.47,.35,1.02,.5,1.6,.52,2.01,.06,3.6-.81,4.92-2.24,.55-.6,1.08-1.23,1.62-1.85,.15,.07,.14,.19,.1,.3-.09,.25-.17,.51-.3,.75-.44,.81-.97,1.56-1.62,2.22-.85,.87-1.86,1.48-3.07,1.69-.47,.08-.94,.1-1.43,.04-.57-.07-1.11-.23-1.62-.49-.71-.37-1.18-.91-1.32-1.71-.09-.55,.02-1.07,.25-1.57,.34-.75,.88-1.32,1.55-1.79,1.01-.71,2.16-1.12,3.35-1.4,.52-.13,1.05-.23,1.59-.3,.8-.1,1.61-.17,2.41-.21,.96-.05,1.92-.06,2.87-.06,.82,0,1.64,.07,2.45,.05,.87-.02,1.73-.1,2.6-.16,.37-.02,.73-.06,1.12-.09Z"/>
        <path class="cls-8" d="M55.55,61.76c.26,.16,.27,.21,.07,.4-.55,.56-1.16,1.03-1.8,1.48-.72,.5-1.48,.95-2.3,1.27-.36,.14-.73,.28-1.13,.27-.55-.02-.86-.34-.87-.89-.02-.59,.2-1.12,.45-1.63,.48-.99,1.12-1.89,1.81-2.74,.44-.55,.92-1.06,1.44-1.52,.84-.73,1.73-1.39,2.82-1.7,.32-.09,.63-.19,.97-.15,.16,.02,.32,.05,.46,.11,.36,.16,.49,.5,.35,.87-.16,.41-.45,.71-.76,.98-.78,.69-1.7,1.14-2.66,1.52-.67,.26-1.35,.5-2.05,.64-.08,.02-.17,.08-.22,.14-.62,.87-1.23,1.75-1.62,2.76-.09,.23-.13,.48-.14,.73-.02,.31,.16,.48,.46,.43,.3-.05,.6-.13,.89-.25,.86-.37,1.63-.88,2.37-1.45,.45-.35,.87-.74,1.3-1.11,.06-.05,.12-.1,.18-.15Zm-2.97-1.57c.92-.19,1.78-.49,2.61-.88,.66-.32,1.27-.7,1.8-1.21,.16-.16,.31-.34,.42-.54,.19-.33,.06-.54-.32-.54-.46,0-.88,.17-1.27,.38-.94,.5-1.75,1.18-2.48,1.95-.26,.27-.5,.56-.75,.84Z"/>
        <path class="cls-8" d="M40.95,63.32c-.23,.06-.43,.15-.63,.17-.44,.05-.78-.27-.78-.71,0-.53,.22-.97,.61-1.32,.22-.2,.48-.35,.78-.42,.5-.12,.81,0,1.07,.46,.01,.02,.04,.04,.09,.08,.14-.38,.44-.38,.76-.36,.05,0,.1,0,.15,0,.19,.03,.25,.16,.15,.32-.19,.29-.41,.57-.59,.86-.29,.48-.57,.96-.84,1.45-.08,.15-.08,.34-.12,.49,.16,.14,.29,.09,.4,.04,.25-.11,.49-.22,.72-.36,.73-.44,1.39-.97,2.02-1.55,.26-.24,.53-.48,.79-.72,.24,.16,.25,.25,.07,.42-.31,.28-.62,.57-.94,.83-.54,.43-1.08,.85-1.65,1.24-.33,.22-.7,.38-1.07,.53-.17,.07-.37,.08-.55,.06-.37-.04-.61-.33-.6-.7,0-.15,.04-.3,.07-.44,.03-.12,.07-.24,.11-.37Zm-.68-.53c-.01,.21,.07,.3,.28,.26,.13-.03,.27-.08,.39-.14,.35-.18,.56-.5,.76-.82,.1-.17,.03-.46-.13-.57-.06-.04-.16-.06-.22-.03-.55,.23-.87,.67-1.07,1.21,0,.03,0,.06,0,.09Z"/>
        <path class="cls-8" d="M45.88,64.31c.19,.12,.37,.04,.55-.03,.63-.25,1.17-.64,1.69-1.06,.53-.43,1.04-.91,1.55-1.36,.04-.03,.07-.07,.11-.09,.25,.13,.28,.22,.11,.37-.93,.85-1.86,1.69-2.97,2.31-.34,.19-.69,.35-1.09,.39-.48,.05-.84-.28-.81-.76,.02-.35,.15-.69,.33-.98,.36-.58,.74-1.13,1.12-1.7,.04-.05,.1-.11,.16-.12,.21-.01,.42-.02,.63,0,.16,.02,.2,.15,.11,.29-.19,.27-.4,.52-.58,.8-.29,.46-.56,.94-.84,1.41-.1,.16-.12,.34-.07,.54Z"/>
        <path class="cls-8" d="M47.35,59.98c.24,0,.54,.28,.55,.51,0,.26-.31,.6-.57,.6-.22,0-.5-.31-.5-.56,0-.28,.26-.55,.53-.55Z"/>
      </g>
    </g>
    <path class="cls-8" d="M66.66,8.14c.09,.04,.18,.08,.28,.12,0,.02-.01,.03-.02,.05l-.3-.1s.03-.05,.04-.07Z"/>
  </g>
</svg>