<?xml version="1.0" encoding="UTF-8"?>
<svg id="Layer_1" data-name="Layer 1" xmlns="http://www.w3.org/2000/svg" viewBox="0 0 100 100">
  <defs>
    <style>
      .cls-1 {
        fill: #333;
        stroke-width: 0px;
      }
    </style>
  </defs>
  <path class="cls-1" d="m78.64,49.37c-.38-.75-.96-1.32-1.76-1.71-.8-.39-1.93-.59-3.4-.59-1.23,0-2.2.2-2.91.59-.71.39-1.24.88-1.6,1.46-.36.59-.59,1.21-.68,1.87-.09.66-.14,1.25-.14,1.76v3.15h11.27c0-1.41-.04-2.67-.11-3.76-.08-1.1-.3-2.02-.68-2.77Z"/>
  <path class="cls-1" d="m85,0H15C6.72,0,0,6.72,0,15v70c0,8.28,6.72,15,15,15h70c8.28,0,15-6.72,15-15V15c0-8.28-6.72-15-15-15Zm-21.75,21.02c.15-.54.41-1.08.77-1.62.6-.87,1.31-1.43,2.12-1.69.81-.25,1.61-.38,2.39-.38.87,0,1.71.27,2.52.81l10.1,6.13c.42.27.86.76,1.31,1.46.45.71.68,1.51.68,2.41,0,.42-.08.88-.23,1.37-.15.5-.41,1-.77,1.51-.6.87-1.25,1.44-1.96,1.69-.71.26-1.46.38-2.28.38-.45,0-.91-.05-1.37-.16-.47-.1-.91-.29-1.33-.56l-9.92-6.04c-.6-.42-1.13-.97-1.58-1.64-.45-.68-.68-1.42-.68-2.23,0-.42.07-.9.23-1.44Zm-18.16,51.38c0,1.29-.08,2.55-.23,3.79-.15,1.23-.47,2.33-.97,3.29-.5.96-1.2,1.73-2.12,2.32-.92.59-2.16.88-3.72.88s-2.75-.29-3.65-.88c-.9-.59-1.59-1.36-2.07-2.32-.48-.96-.79-2.06-.92-3.29-.14-1.23-.2-2.49-.2-3.79v-17.58c0-.84-.04-1.67-.11-2.48-.08-.81-.25-1.52-.52-2.14-.27-.62-.67-1.11-1.19-1.49-.53-.38-1.24-.56-2.14-.56-1.23,0-2.22.41-2.97,1.22-.75.81-1.35,1.92-1.78,3.34-.44,1.41-.73,3.07-.88,4.98-.15,1.91-.23,3.96-.23,6.15v8.56c0,1.29-.08,2.55-.23,3.79-.15,1.23-.47,2.33-.97,3.29-.5.96-1.2,1.73-2.12,2.32-.92.59-2.16.88-3.72.88s-2.75-.29-3.65-.88c-.9-.59-1.59-1.36-2.07-2.32-.48-.96-.79-2.06-.92-3.29-.14-1.23-.2-2.49-.2-3.79v-24.61c0-1.29.05-2.55.14-3.76.09-1.22.36-2.3.81-3.24.45-.95,1.13-1.71,2.05-2.3.92-.59,2.2-.88,3.85-.88s2.94.28,3.88.83c.93.56,1.63,1.22,2.1,2.01.47.78.76,1.61.88,2.48.12.87.18,1.62.18,2.25.24-.87.62-1.76,1.13-2.66.51-.9,1.16-1.71,1.96-2.43.8-.72,1.75-1.31,2.86-1.78,1.11-.47,2.4-.7,3.88-.7,1.65,0,3.3.27,4.96.81,1.65.54,3.14,1.44,4.46,2.7,1.32,1.26,2.4,2.91,3.22,4.96.83,2.04,1.24,4.57,1.24,7.57v18.75Zm47.41-15.41c0,.48-.03,1.04-.09,1.69-.06.65-.29,1.26-.7,1.85-.41.59-1.04,1.09-1.92,1.51-.87.42-2.1.63-3.7.63h-17.94v4.33c0,.72.09,1.47.27,2.25.18.78.49,1.5.92,2.16.44.66,1.01,1.2,1.74,1.62.72.42,1.61.63,2.66.63,1.2,0,2.13-.14,2.77-.43.65-.29,1.16-.64,1.53-1.06.38-.42.71-.87,1.01-1.35.3-.48.7-.93,1.19-1.35.5-.42,1.19-.77,2.07-1.06.89-.29,2.11-.43,3.67-.43.75,0,1.48.06,2.19.18.71.12,1.33.35,1.87.68.54.33.98.79,1.31,1.37.33.59.5,1.34.5,2.28,0,1.95-.62,3.58-1.85,4.89-1.23,1.31-2.78,2.35-4.64,3.13-1.86.78-3.88,1.34-6.06,1.67-2.18.33-4.21.5-6.11.5-2.49-.03-4.87-.34-7.12-.95-2.25-.6-4.24-1.56-5.97-2.88-1.73-1.32-3.1-3.05-4.12-5.18-1.02-2.13-1.53-4.75-1.53-7.84v-10.55c0-2.85.34-5.27,1.01-7.26.68-1.98,1.55-3.64,2.64-4.96,1.08-1.32,2.3-2.35,3.65-3.09,1.35-.74,2.72-1.28,4.1-1.65,1.38-.36,2.7-.59,3.94-.68,1.25-.09,2.32-.14,3.22-.14,3.03,0,5.63.27,7.77.81,2.15.54,3.94,1.25,5.39,2.12,1.44.87,2.58,1.88,3.43,3.02.84,1.14,1.47,2.32,1.89,3.54.42,1.22.69,2.45.81,3.7.12,1.25.18,2.41.18,3.49v2.79Z"/>
</svg>