<?xml version="1.0" encoding="UTF-8"?>
<svg id="Layer_1" data-name="Layer 1" xmlns="http://www.w3.org/2000/svg" xmlns:xlink="http://www.w3.org/1999/xlink" viewBox="0 0 100 100">
  <defs>
    <style>
      .cls-1 {
        fill: url(#linear-gradient-2);
      }

      .cls-2 {
        fill: none;
      }

      .cls-3 {
        stroke: #000;
        stroke-miterlimit: 10;
        stroke-width: .09px;
      }

      .cls-4 {
        fill: url(#linear-gradient);
      }

      .cls-5 {
        fill: #ffe9d6;
      }
    </style>
    <linearGradient id="linear-gradient" x1="5" y1="50" x2="95" y2="50" gradientUnits="userSpaceOnUse">
      <stop offset="0" stop-color="#a87a24"/>
      <stop offset=".1" stop-color="#bb933c"/>
      <stop offset=".27" stop-color="#daba62"/>
      <stop offset=".41" stop-color="#edd379"/>
      <stop offset=".5" stop-color="#f4dc82"/>
      <stop offset=".59" stop-color="#edd379"/>
      <stop offset=".73" stop-color="#daba62"/>
      <stop offset=".92" stop-color="#bc933c"/>
      <stop offset="1" stop-color="#ad7f29"/>
    </linearGradient>
    <linearGradient id="linear-gradient-2" x1="5" y1="50.27" x2="95" y2="50.27" xlink:href="#linear-gradient"/>
  </defs>
  <rect width="100" height="100"/>
  <g>
    <g>
      <path class="cls-5" d="M49.71,26.71c-.23,.01-.42-.17-.42-.4s.18-.41,.41-.42h.76s.16,.01,.16,.01h.2c.22,.01,.4,.2,.4,.43-.01,.23-.2,.4-.43,.4h-.04s-.15-.01-.15-.01h-.3s-.15-.01-.15-.01h-.44Zm-2.5-.66c.23-.03,.43,.13,.45,.35,.02,.23-.14,.43-.36,.45h-.01s-.15,.02-.15,.02l-.15,.02-.14,.02-.15,.02-.15,.02h-.04c-.22,.03-.43-.12-.46-.34-.03-.23,.12-.43,.34-.46h.04s.15-.03,.15-.03l.16-.02,.15-.02h.15s.15-.03,.15-.03h.02Zm-3.28,.6c.21-.06,.44,.08,.5,.29,.05,.22-.09,.44-.3,.49h-.04s-.14,.05-.14,.05l-.14,.03-.14,.04-.14,.04-.14,.03h-.03c-.21,.08-.44-.04-.5-.26-.06-.23,.05-.45,.27-.52h.04s.14-.05,.14-.05l.15-.03,.14-.04,.15-.04,.14-.03h.04Zm-3.16,1.03c.2-.09,.45,.01,.54,.23,.09,.2-.02,.44-.22,.53h-.01s-.14,.06-.14,.06l-.13,.05-.13,.05-.13,.06-.14,.05-.06,.03c-.2,.09-.45,0-.54-.2-.1-.2,0-.45,.2-.55l.06-.03,.14-.05,.14-.06,.13-.05,.14-.06,.14-.05h.01Zm-2.99,1.46c.19-.11,.44-.04,.56,.15,.12,.19,.04,.44-.15,.56l-.08,.04-.12,.08-.13,.08-.12,.06-.12,.08-.12,.08h-.01c-.19,.13-.44,.06-.56-.12-.13-.19-.06-.45,.12-.57h.01l.13-.09,.13-.08,.12-.08,.13-.08,.13-.08,.07-.04Zm-2.76,1.86c.17-.14,.43-.11,.57,.08,.14,.17,.11,.43-.06,.57l-.11,.09-.11,.09-.12,.09-.11,.1-.11,.09-.09,.06c-.17,.15-.43,.12-.57-.05-.15-.17-.13-.43,.05-.57l.08-.07,.12-.09,.11-.1,.12-.1,.12-.09,.11-.09Zm-2.48,2.21c.16-.16,.42-.16,.58,0,.16,.15,.16,.41,0,.57l-.02,.03-.1,.1-.1,.11-.1,.1-.1,.11-.1,.1-.04,.05c-.15,.16-.41,.17-.58,.02-.16-.15-.18-.41-.02-.57l.04-.05,.1-.11,.1-.11,.11-.11,.1-.11,.11-.11,.02-.02Zm-2.16,2.54c.13-.18,.39-.23,.57-.09,.18,.13,.21,.39,.09,.57l-.04,.05-.09,.12-.09,.12-.08,.12-.09,.11-.09,.12v.02c-.14,.18-.39,.24-.58,.11-.18-.13-.23-.39-.11-.57l.02-.02,.09-.12,.07-.13,.09-.12,.09-.12,.1-.12,.04-.05Zm-1.81,2.79c.11-.19,.35-.27,.56-.16,.19,.11,.27,.35,.16,.56l-.07,.11-.06,.13-.06,.13-.06,.12-.06,.13-.05,.1c-.1,.2-.34,.28-.55,.18-.2-.11-.28-.35-.18-.55l.05-.11,.06-.13,.06-.13,.08-.13,.06-.13,.06-.12Zm-1.4,3.02c.07-.2,.31-.31,.53-.24,.22,.09,.32,.32,.24,.53l-.02,.06-.05,.13-.04,.14-.05,.14-.05,.13-.04,.14v.02c-.08,.2-.31,.32-.53,.25-.21-.06-.32-.3-.26-.52v-.02s.06-.14,.06-.14l.04-.14,.05-.14,.05-.14,.05-.14,.02-.06Zm-.98,3.18c.05-.22,.27-.35,.49-.3,.21,.04,.35,.27,.3,.48v.04l-.04,.14-.02,.15-.03,.14-.03,.15-.03,.14v.03c-.04,.21-.26,.36-.48,.32-.23-.04-.37-.26-.32-.48v-.03l.03-.15,.03-.15,.03-.14,.03-.15,.03-.15v-.04Zm-.52,3.29c.02-.23,.21-.39,.44-.37,.23,.01,.39,.22,.38,.44v.07s-.02,.15-.02,.15v.15s-.02,.15-.02,.15v.15s-.02,.13-.02,.13c-.01,.23-.2,.4-.43,.39-.23-.02-.4-.22-.39-.44v-.13s.02-.15,.02-.15v-.15s.02-.16,.02-.16v-.15s.02-.09,.02-.09Zm-.09,3.33c-.01-.23,.17-.42,.4-.43,.23-.01,.41,.16,.42,.39v.19s.02,.16,.02,.16v.15s.02,.15,.02,.15v.14s.01,.01,.01,.01c.01,.23-.15,.42-.38,.44-.23,.02-.43-.15-.44-.38h0s-.01-.16-.01-.16v-.16s-.02-.15-.02-.15v-.16s-.02-.15-.02-.15v-.04Zm.37,3.31c-.04-.23,.11-.44,.33-.48,.22-.04,.43,.11,.47,.33l.02,.11,.03,.14,.02,.15,.03,.14,.03,.15,.02,.1c.04,.23-.1,.44-.31,.49-.23,.04-.44-.1-.49-.32l-.02-.11-.03-.14-.03-.15-.02-.15-.03-.15-.02-.11Zm.82,3.22c-.07-.21,.04-.45,.26-.52,.21-.07,.45,.04,.52,.26l.03,.1,.05,.14,.04,.14,.04,.14,.05,.13,.04,.12c.07,.21-.03,.44-.25,.53-.21,.08-.45-.03-.53-.25l-.04-.12-.04-.14-.05-.14-.05-.15-.04-.14-.03-.1Zm1.25,3.08c-.1-.2-.01-.45,.19-.55,.19-.1,.44-.01,.55,.18l.02,.05,.06,.13,.06,.13,.06,.13,.06,.12,.06,.13v.03c.12,.2,.04,.45-.15,.56-.2,.11-.45,.03-.56-.17l-.02-.03-.06-.13-.06-.14-.06-.13-.08-.13-.06-.14-.02-.04Zm1.65,2.89c-.12-.19-.08-.45,.12-.57,.18-.13,.44-.08,.57,.11l.05,.1,.09,.12,.07,.12,.09,.11,.09,.12,.06,.11c.14,.18,.1,.44-.09,.57-.18,.13-.44,.09-.58-.1l-.08-.11-.07-.12-.09-.12-.09-.12-.09-.13-.06-.09Zm2.04,2.63c-.15-.17-.14-.43,.03-.58,.16-.15,.43-.14,.58,.03h0s.1,.12,.1,.12l.1,.11,.1,.1,.1,.11,.1,.11,.05,.05c.16,.16,.15,.43-.01,.58-.16,.16-.43,.15-.58-.01l-.06-.06-.1-.11-.1-.11-.1-.11-.11-.11-.1-.11h0Zm2.36,2.32c-.17-.15-.19-.41-.04-.58,.15-.17,.41-.19,.58-.04l.04,.03,.11,.1,.11,.09,.11,.1,.11,.09,.11,.09,.03,.03c.18,.14,.2,.4,.06,.57-.14,.18-.4,.21-.57,.07l-.04-.03-.11-.1-.12-.09-.11-.1-.12-.1-.11-.1-.04-.03Zm2.66,2c-.18-.13-.25-.38-.12-.57,.12-.19,.38-.25,.56-.13l.09,.05,.12,.09,.13,.07,.12,.08,.12,.06,.12,.07c.19,.12,.26,.37,.14,.56-.12,.19-.36,.26-.56,.14l-.12-.06-.13-.09-.13-.07-.12-.08-.13-.07-.09-.05Zm2.91,1.61c-.2-.1-.29-.34-.19-.55,.1-.2,.33-.29,.54-.19h.02l.13,.06,.13,.05,.13,.06,.14,.05,.13,.06,.06,.02c.21,.09,.3,.33,.22,.54-.09,.2-.33,.3-.54,.21l-.06-.02-.14-.06-.14-.05-.13-.07-.14-.06-.13-.06h-.02Zm3.11,1.19c-.22-.06-.33-.29-.27-.5,.06-.22,.29-.34,.5-.28l.12,.04,.14,.04,.14,.03,.14,.04,.14,.04,.1,.02c.22,.06,.35,.29,.29,.5-.05,.22-.28,.34-.5,.29l-.1-.03-.15-.04-.14-.03-.15-.04-.14-.04-.12-.04Zm3.24,.76c-.23-.03-.38-.24-.34-.46,.03-.23,.25-.38,.47-.34l.12,.02,.15,.02,.14,.02,.15,.02,.15,.02h.09c.23,.04,.38,.25,.35,.47-.03,.23-.24,.38-.46,.35h-.09s-.16-.03-.16-.03l-.15-.02-.15-.02-.15-.03-.12-.02Zm3.31,.32c-.23-.01-.41-.19-.4-.42,0-.22,.19-.41,.42-.4h.66s.15,0,.15,0c.23,0,.41,.18,.41,.41s-.18,.42-.41,.42h-.62s-.15-.01-.15-.01h-.05Zm3.32-.13c-.23,.02-.43-.14-.45-.37-.02-.23,.14-.43,.37-.45h.01l.15-.02h.14s.15-.03,.15-.03l.15-.02,.15-.02h.04c.23-.04,.43,.12,.46,.34,.03,.23-.12,.43-.34,.46h-.05s-.15,.03-.15,.03h-.15s-.15,.03-.15,.03l-.16,.02h-.15s-.01,.02-.01,.02Zm3.28-.59c-.21,.06-.44-.07-.49-.29-.05-.23,.08-.44,.3-.49h.03s.14-.05,.14-.05l.15-.03,.14-.04,.14-.03,.14-.04h.03c.22-.08,.44,.05,.51,.27,.06,.22-.06,.45-.28,.51h-.03s-.15,.05-.15,.05l-.14,.04-.15,.04-.15,.03-.14,.04h-.04Zm3.17-1.02c-.21,.09-.45-.01-.54-.23-.09-.2,.02-.45,.23-.53h.01s.14-.06,.14-.06l.13-.05,.14-.05,.13-.05,.13-.06,.07-.02c.21-.1,.45,0,.55,.2,.09,.2,0,.45-.22,.54l-.06,.03-.14,.06-.14,.05-.14,.05-.13,.07-.14,.05h-.01Zm3-1.44c-.19,.11-.45,.04-.56-.16-.12-.19-.04-.44,.15-.56l.08-.04,.12-.06,.13-.07,.12-.08,.13-.07,.12-.06h0c.19-.13,.45-.07,.57,.12,.12,.19,.05,.45-.13,.57h-.01l-.13,.09-.13,.07-.12,.08-.13,.07-.13,.07-.08,.05Zm2.77-1.85c-.18,.14-.44,.11-.58-.07-.13-.17-.1-.43,.07-.57l.11-.09,.12-.09,.11-.09,.11-.1,.12-.09,.07-.06c.17-.14,.43-.12,.58,.05,.14,.18,.12,.44-.06,.58l-.07,.06-.12,.1-.11,.09-.12,.1-.12,.09-.11,.09Zm2.49-2.2c-.16,.16-.42,.17-.58,.01-.16-.16-.16-.42,0-.58l.02-.02,.1-.11,.11-.1,.1-.11,.1-.1,.1-.11,.04-.04c.15-.17,.41-.18,.58-.02,.16,.15,.17,.41,.02,.57l-.04,.05-.11,.11-.1,.11-.11,.11-.1,.1-.11,.11-.02,.02Zm2.18-2.51c-.14,.18-.4,.22-.58,.09-.17-.14-.21-.4-.07-.57l.04-.06,.09-.12,.09-.11,.07-.12,.09-.12,.09-.12h.01c.13-.19,.38-.25,.57-.12,.18,.13,.23,.39,.1,.57v.02s-.1,.12-.1,.12l-.09,.13-.09,.12-.09,.12-.09,.12-.04,.05Zm1.82-2.78c-.11,.19-.36,.27-.56,.16-.19-.12-.27-.37-.16-.56l.06-.12,.06-.12,.08-.13,.06-.13,.06-.13,.05-.09c.1-.2,.34-.28,.55-.18,.2,.11,.28,.35,.17,.55l-.04,.11-.08,.13-.06,.13-.07,.13-.06,.13-.06,.12Zm1.42-3.01c-.09,.2-.32,.31-.53,.22-.21-.07-.32-.31-.24-.53l.02-.05,.05-.14,.04-.14,.05-.13,.05-.14,.04-.13v-.02c.09-.21,.31-.33,.53-.26,.22,.07,.33,.31,.26,.53v.02s-.06,.14-.06,.14l-.04,.14-.05,.14-.05,.14-.05,.14-.02,.06Zm.99-3.18c-.04,.21-.27,.35-.48,.3-.23-.05-.36-.27-.31-.49v-.03s.04-.14,.04-.14l.03-.15,.03-.14,.03-.14,.03-.15v-.03c.04-.21,.27-.37,.48-.32,.23,.04,.37,.27,.32,.48v.04s-.03,.14-.03,.14l-.03,.15-.03,.15-.04,.15-.03,.14v.04Zm.55-3.29c-.02,.23-.22,.4-.45,.38-.23-.02-.39-.23-.37-.45v-.08l.02-.15v-.15s.02-.15,.02-.15v-.14s.02-.14,.02-.14c.01-.23,.21-.39,.43-.38,.23,.01,.4,.2,.39,.43v.14s-.02,.15-.02,.15v.16s-.02,.15-.02,.15l-.02,.15v.07Zm.1-3.32c.01,.23-.17,.42-.4,.43-.23,0-.41-.17-.42-.4v-.19s-.01-.15-.01-.15v-.15s-.02-.15-.02-.15v-.15s0-.01,0-.01c-.02-.23,.15-.42,.38-.44,.23-.01,.42,.15,.44,.38v.17s.02,.16,.02,.16v.15s.01,.16,.01,.16v.16s.01,.03,.01,.03Zm-.35-3.31c.04,.23-.11,.43-.33,.47-.23,.04-.43-.11-.47-.33l-.02-.11-.02-.14-.03-.15-.02-.14-.03-.14-.02-.11c-.05-.23,.1-.44,.31-.49,.23-.04,.44,.1,.48,.32l.02,.11,.03,.15,.03,.15,.03,.15,.02,.15,.02,.11Zm-.79-3.23c.06,.21-.05,.45-.27,.52-.22,.08-.44-.04-.52-.26l-.02-.11-.05-.13-.04-.14-.04-.14-.05-.14-.04-.11c-.07-.21,.04-.45,.25-.53,.21-.08,.45,.03,.53,.25l.04,.12,.05,.14,.04,.14,.05,.15,.04,.14,.03,.1Zm-1.22-3.09c.1,.2,.01,.45-.19,.55-.2,.1-.45,.01-.55-.19l-.02-.04-.06-.13-.06-.13-.06-.13-.06-.13-.06-.13-.02-.03c-.1-.19-.02-.44,.17-.55,.2-.11,.45-.03,.56,.17l.02,.03,.06,.13,.06,.14,.06,.13,.06,.13,.07,.14,.03,.04Zm-1.64-2.89c.13,.18,.07,.44-.12,.57-.18,.12-.44,.06-.56-.12l-.06-.1-.09-.12-.07-.12-.09-.12-.07-.12-.08-.1c-.13-.18-.09-.44,.1-.57,.18-.13,.44-.09,.57,.1l.08,.11,.09,.12,.09,.12,.07,.12,.09,.13,.06,.1Zm-2.02-2.64c.15,.16,.14,.42-.03,.57-.17,.15-.43,.14-.58-.03h-.01s-.1-.12-.1-.12l-.09-.11-.1-.11-.1-.11-.1-.1-.05-.06c-.16-.16-.15-.42,0-.58,.17-.15,.43-.14,.58,.02l.06,.06,.1,.11,.1,.11,.1,.11,.1,.11,.1,.11v.02Zm-2.34-2.35c.17,.15,.19,.41,.04,.58-.15,.16-.41,.18-.58,.03l-.04-.03-.11-.1-.11-.09-.11-.1-.11-.09-.11-.09-.03-.03c-.18-.14-.2-.4-.07-.57,.14-.18,.4-.2,.58-.06l.03,.03,.11,.09,.12,.1,.11,.1,.12,.1,.11,.09,.04,.04Zm-2.65-2.01c.19,.12,.25,.38,.12,.56-.12,.19-.38,.25-.57,.13l-.07-.05-.12-.09-.13-.07-.12-.08-.12-.08-.12-.07c-.19-.12-.26-.38-.14-.57,.12-.19,.38-.25,.57-.13l.12,.06,.12,.09,.13,.08,.13,.08,.12,.09,.09,.05Zm-2.9-1.63c.2,.1,.29,.34,.19,.55-.1,.2-.34,.29-.55,.19h-.01s-.13-.07-.13-.07l-.13-.06-.13-.06-.14-.05-.13-.05-.06-.03c-.2-.09-.3-.33-.21-.54,.1-.2,.33-.3,.54-.21l.08,.03,.13,.05,.14,.06,.13,.06,.14,.05,.13,.06h.02Zm-3.09-1.2c.21,.07,.33,.29,.27,.51-.06,.22-.3,.34-.52,.27l-.11-.03-.14-.04-.14-.04-.14-.04-.14-.03-.11-.03c-.21-.07-.34-.29-.28-.51,.05-.22,.28-.34,.51-.28l.11,.02,.14,.04,.15,.04,.14,.04,.14,.04,.12,.04Zm-3.23-.78c.21,.03,.38,.25,.33,.46-.03,.23-.25,.38-.47,.34l-.12-.02-.14-.02-.15-.02-.15-.02-.14-.02-.1-.02c-.23-.02-.38-.23-.35-.45,.03-.23,.24-.39,.46-.35h.1s.15,.03,.15,.03l.15,.02,.16,.03,.15,.02,.12,.02Z"/>
      <path class="cls-5" d="M60.67,36.46l-2.13-2c-2.76,6.91-5.52,13.83-8.28,20.74-2.85-6.84-5.7-13.68-8.55-20.52-.55,.74-1.11,1.48-1.66,2.22-1.19-.56-2.38-1.11-3.56-1.67l13.77,33.53c4.66-11.36,9.31-22.72,13.97-34.08-1.18,.59-2.37,1.18-3.55,1.78Z"/>
      <line class="cls-3" x1="40.05" y1="36.9" x2="50.48" y2="61.53"/>
      <line class="cls-3" x1="60.67" y1="36.46" x2="50.48" y2="61.53"/>
    </g>
    <polygon class="cls-2" points="37.22 24.54 37.22 24.6 37.28 24.6 37.22 24.54"/>
    <path class="cls-2" d="M22.21,43.3c-.83-.18-1.19-.95-1.19-1.67,0-.83,.72-1.97,2.26-1.97h.06c.3-.65,.54-1.25,.83-1.91-.24-.06-.54-.06-.83-.06-2.86,0-3.81,2.03-3.81,3.75,0,1.85,1.13,2.92,2.38,3.22,.06-.48,.18-.95,.3-1.37Z"/>
    <path class="cls-2" d="M41.75,21.62h-.12c-.42,0-1.37,.42-1.37,1.73,.36-.12,.72-.24,1.01-.36-.06-.12-.06-.3-.06-.42,0-.42,.18-.77,.54-.95Z"/>
    <path class="cls-2" d="M21.56,58.31c0,.42,.36,1.19,1.37,1.37-.12-.3-.24-.6-.3-.89h-.12c-.41,0-.71-.24-.89-.54-.06,0-.06,.06-.06,.06Z"/>
    <path class="cls-2" d="M21.02,58.31c0-.66,.3-1.37,1.01-1.61-.06-.42-.18-.89-.24-1.37-1.19,.3-2.26,1.43-2.26,3.22s.95,3.75,3.81,3.75c.18,0,.42-.06,.6-.06-.3-.66-.54-1.31-.83-1.97-1.43-.06-2.09-1.13-2.09-1.97Z"/>
    <path class="cls-2" d="M21.62,41.75c.18-.36,.48-.54,.89-.54h.3c.12-.3,.18-.66,.3-.95-1.13,.06-1.55,.95-1.55,1.37,0,0,0,.06,.06,.12Z"/>
    <path class="cls-2" d="M76.65,39.67c1.61,0,2.32,1.13,2.32,1.97,0,.72-.42,1.49-1.19,1.67,.06,.42,.18,.89,.3,1.37,1.25-.3,2.38-1.37,2.38-3.22,0-1.73-1.01-3.75-3.87-3.75-.24,0-.54,0-.83,.06,.3,.65,.6,1.25,.83,1.91h.06Z"/>
    <path class="cls-2" d="M39.73,23.53c-.06-.06-.06-.12-.06-.18,0-1.61,1.19-2.32,1.97-2.32s1.61,.42,1.67,1.37c.48-.06,.95-.18,1.43-.3-.24-1.31-1.31-2.56-3.28-2.56-1.73,0-3.75,1.01-3.75,3.81,0,.36,.06,.65,.12,1.01,.6-.3,1.25-.6,1.91-.83Z"/>
    <path class="cls-2" d="M78.38,41.63c0-.42-.42-1.31-1.55-1.37,.12,.3,.24,.65,.3,.95h.3c.42,0,.78,.18,.95,.54v-.12Z"/>
    <path class="cls-2" d="M58.37,21.03c.77,0,1.91,.71,1.91,2.32v.18c.65,.3,1.31,.54,1.9,.83,.06-.36,.12-.65,.12-1.01,0-2.8-2.02-3.81-3.75-3.81-1.97,0-3.1,1.25-3.28,2.62,.48,.06,.95,.18,1.37,.24,.12-.95,.95-1.37,1.73-1.37Z"/>
    <polygon class="cls-2" points="62.72 24.54 62.72 24.6 62.78 24.66 62.72 24.54"/>
    <path class="cls-2" d="M59.74,23.35c0-1.31-.95-1.73-1.37-1.73h-.12c.3,.18,.54,.54,.54,.95,0,.12-.06,.3-.12,.42,.36,.12,.71,.24,1.07,.36Z"/>
    <path class="cls-2" d="M69.92,30.38c-5.12-5.12-12.15-8.28-19.95-8.28s-14.83,3.16-19.89,8.28c-5.12,5.06-8.28,12.09-8.28,19.89s3.16,14.83,8.28,19.95c5.06,5.06,12.09,8.22,19.89,8.22s14.83-3.16,19.95-8.22c5.06-5.12,8.22-12.15,8.22-19.95s-3.16-14.83-8.22-19.89Zm-.71,39.13c-4.89,4.94-11.74,7.98-19.24,7.98s-14.29-3.04-19.24-7.98c-4.94-4.88-7.98-11.73-7.98-19.24s3.04-14.3,7.98-19.24c4.95-4.94,11.73-7.98,19.24-7.98s14.35,3.04,19.24,7.98c4.94,4.94,7.98,11.73,7.98,19.24s-3.04,14.36-7.98,19.24Z"/>
    <path class="cls-2" d="M41.63,78.98c-.71,0-1.79-.6-1.9-1.97-.72-.24-1.37-.53-2.03-.83v.48c0,2.8,2.03,3.81,3.75,3.81s2.74-.95,3.16-2.09c-.48-.06-.95-.18-1.43-.3-.24,.6-.89,.89-1.55,.89Z"/>
    <path class="cls-2" d="M78.38,58.31v-.06c-.18,.3-.54,.54-.95,.54h-.12c-.06,.3-.18,.6-.24,.89,.95-.18,1.31-.95,1.31-1.37Z"/>
    <path class="cls-2" d="M77.91,56.71c.71,.24,1.07,.95,1.07,1.61,0,.83-.66,1.91-2.14,1.97-.24,.65-.54,1.31-.83,1.97,.24,0,.42,.06,.59,.06,2.86,0,3.87-2.03,3.87-3.75s-1.07-2.92-2.26-3.22c-.12,.48-.18,.95-.3,1.37Z"/>
    <path class="cls-2" d="M60.28,77.01c-.12,1.37-1.19,1.97-1.91,1.97-.66,0-1.31-.3-1.55-.89-.48,.12-.95,.24-1.43,.3,.42,1.13,1.49,2.09,3.16,2.09s3.75-1.01,3.75-3.81c0-.18,0-.36-.06-.48-.6,.3-1.31,.6-1.97,.83Z"/>
    <path class="cls-2" d="M68.91,31.33c-4.82-4.83-11.56-7.8-18.94-7.8s-14.06,2.98-18.94,7.8c-4.83,4.88-7.8,11.56-7.8,18.94s2.98,14.12,7.8,18.94c4.88,4.83,11.55,7.86,18.94,7.86s14.12-3.04,18.94-7.86c4.83-4.82,7.86-11.56,7.86-18.94s-3.04-14.06-7.86-18.94Z"/>
    <path class="cls-2" d="M41.75,78.38c-.3-.18-.54-.48-.54-.83-.3-.12-.59-.18-.84-.3,.18,.83,.89,1.13,1.25,1.13h.12Z"/>
    <path class="cls-2" d="M59.62,77.26c-.24,.12-.54,.18-.83,.3,0,.36-.24,.66-.54,.83h.12c.36,0,1.07-.3,1.25-1.13Z"/>
    <path class="cls-4" d="M90.59,49.68c-.18,0-1.55-.12-2.98-1.73l-.24-.24-.18,.24s-1.49,1.67-8.1,1.73v-.18c4.41-.3,6.79-3.45,6.91-4.53v-.12c0-.3-.18-.42-.3-.48-1.31-.36-1.97-1.49-1.97-1.49l-.71-1.37,.18,1.55c.24,1.85-.06,3.28-.95,4.29-.95,1.07-2.32,1.37-3.1,1.49,0-.83,.18-1.67,.42-1.85l.6-.54h-1.79c-.06-.42-.12-.83-.18-1.19,1.67-.36,2.86-1.91,2.86-3.81,0-1.73-.89-3.45-2.8-4.11h.95c.78,0,1.85,1.07,1.97,1.37l.12,.42,.36-.3c.36-.36,1.43-1.25,2.02-1.49l.65-.3-.65-.24c-.71-.3-2.02-1.49-2.02-1.55l-.36-.3-.12,.48c-.12,.24-1.19,1.31-1.97,1.31h-1.37c1.67-.89,3.16-2.86,3.16-5.18,0-3.28-2.62-4.71-4.53-4.71-2.14,0-3.63,1.43-3.63,3.57,0,.89,.36,1.67,1.01,2.14,.65,.6,1.61,.77,2.5,.6,1.37-.3,2.08-1.07,2.08-2.26,0-.89-.53-1.55-1.37-1.67h-.24c-.6,0-1.01,.48-1.01,1.07s.48,1.07,1.07,1.07c.42,0,.77-.24,.95-.6v.12c0,.6-.18,1.37-1.61,1.67-.72,.18-1.49,0-2.03-.42-.48-.42-.77-1.01-.77-1.73,0-1.79,1.25-3.04,3.04-3.04,1.61,0,3.93,1.31,3.93,4.17s-2.32,4.88-4.05,5.06c-.42,.06-.84,.06-1.19,0-1.31-2.44-2.98-4.65-4.94-6.61-2.03-2.03-4.29-3.69-6.85-5.06-.06-.42-.06-.83,0-1.37,.18-1.67,2.2-3.99,5.06-3.99s4.11,2.26,4.11,3.93c0,1.79-1.19,2.98-2.98,2.98-.71,0-1.31-.24-1.73-.71-.42-.54-.59-1.31-.42-2.09,.24-1.37,1.07-1.55,1.61-1.55h.18c-.36,.18-.6,.53-.6,.95,0,.6,.48,1.07,1.07,1.07,.54,0,1.01-.48,1.07-1.01v-.3c-.18-.77-.77-1.31-1.73-1.31-1.19,0-1.97,.72-2.21,2.03-.18,.95,0,1.9,.54,2.56,.54,.66,1.31,.95,2.2,.95,2.14,0,3.57-1.43,3.57-3.57,0-1.91-1.43-4.53-4.71-4.53-2.32,0-4.35,1.49-5.24,3.16v-1.37c0-.83,1.13-1.91,1.37-1.97l.48-.12-.36-.36c0-.06-1.19-1.31-1.49-2.03l-.3-.65-.24,.65c-.24,.6-1.19,1.67-1.49,2.03l-.36,.36,.48,.12c.24,.06,1.37,1.13,1.37,1.97v.95c-.66-1.91-2.38-2.8-4.11-2.8-2.03,0-3.57,1.31-3.87,3.1-.36-.06-.77-.12-1.13-.18v-2.09l-.54,.66c-.24,.24-1.07,.36-1.9,.42,.12-.83,.48-2.14,1.55-3.1,.95-.89,2.44-1.25,4.29-.95l1.55,.18-1.37-.77c-.06,0-1.13-.6-1.49-1.91-.06-.18-.24-.3-.54-.3h-.12c-1.01,.12-4.17,2.44-4.47,6.85h-.24c.06-6.55,1.73-8.04,1.79-8.04l.24-.24-.24-.24c-1.61-1.43-1.73-2.8-1.79-2.92V5h-.6v4.41c0,.12-.12,1.49-1.73,2.92l-.24,.24,.24,.24c.06,0,1.73,1.49,1.73,8.04h-.18c-.3-4.41-3.46-6.73-4.47-6.85h-.18c-.24,0-.42,.12-.48,.3-.36,1.31-1.49,1.91-1.49,1.91l-1.37,.77,1.55-.18c1.84-.3,3.28,.06,4.29,.95,1.07,.95,1.43,2.26,1.55,3.1-.9-.06-1.67-.18-1.91-.42l-.53-.66v2.09c-.36,.06-.78,.12-1.19,.18-.24-1.79-1.79-3.1-3.81-3.1-1.73,0-3.45,.89-4.11,2.8v-.95c0-.83,1.13-1.91,1.37-1.97l.48-.12-.36-.36c0-.06-1.19-1.31-1.49-2.03l-.3-.65-.24,.65c-.3,.72-1.49,1.97-1.49,2.03l-.36,.36,.48,.12c.24,.06,1.31,1.13,1.31,1.97v1.37c-.83-1.67-2.86-3.16-5.18-3.16-3.28,0-4.7,2.62-4.7,4.53,0,2.14,1.43,3.57,3.57,3.57,.89,0,1.67-.3,2.2-.95,.53-.66,.72-1.61,.53-2.56-.3-1.31-1.07-2.03-2.26-2.03-.9,0-1.55,.54-1.67,1.31v.3c.06,.54,.48,1.01,1.07,1.01s1.07-.48,1.07-1.07c0-.42-.24-.77-.6-.95h.12c.59,0,1.37,.18,1.67,1.55,.18,.77,0,1.55-.42,2.09-.42,.48-1.01,.71-1.73,.71-1.79,0-2.98-1.19-2.98-2.98,0-1.67,1.25-3.93,4.11-3.93s4.89,2.32,5.06,3.99c.06,.54,.06,.95,0,1.37-2.56,1.31-4.88,3.04-6.91,5.06-1.91,1.96-3.57,4.17-4.94,6.61-.36,.06-.71,.06-1.19,0-1.67-.18-4.05-2.2-4.05-5.06s2.32-4.17,3.93-4.17c1.85,0,3.04,1.25,3.04,3.04,0,.72-.24,1.31-.78,1.73-.54,.42-1.25,.6-2.03,.42-1.43-.3-1.61-1.07-1.61-1.67q0-.06,.06-.12c.18,.36,.54,.6,.89,.6,.6,0,1.07-.48,1.07-1.07s-.42-1.07-.95-1.07h-.3c-.84,.12-1.31,.77-1.31,1.67,0,1.19,.66,1.97,2.03,2.26,.95,.18,1.85,0,2.56-.6,.6-.48,.95-1.25,.95-2.14,0-2.14-1.43-3.57-3.63-3.57-1.85,0-4.53,1.43-4.53,4.71,0,2.32,1.49,4.29,3.16,5.18h-1.37c-.78,0-1.85-1.07-1.97-1.31l-.12-.48-.36,.3c0,.06-1.25,1.25-2.03,1.55l-.65,.24,.65,.3c.6,.24,1.67,1.13,2.03,1.49l.36,.3,.12-.42c.12-.3,1.19-1.37,1.97-1.37h.95c-1.9,.66-2.74,2.38-2.74,4.11,0,1.91,1.19,3.46,2.86,3.81-.06,.36-.18,.77-.18,1.19h-1.84l.6,.54c.3,.18,.42,1.01,.48,1.85-.83-.12-2.2-.42-3.1-1.49-.89-1.01-1.25-2.44-1.01-4.29l.24-1.55-.77,1.37s-.66,1.13-1.91,1.49c-.18,.06-.36,.18-.36,.48v.12c.18,1.07,2.5,4.23,6.91,4.53v.18c-6.61-.06-8.04-1.73-8.1-1.73l-.18-.24-.24,.24c-1.43,1.61-2.8,1.73-2.92,1.73H5v.6h4.41c.12,0,1.49,.18,2.92,1.79l.24,.24,.18-.3c.06,0,1.49-1.67,8.1-1.73v.24c-4.41,.3-6.73,3.46-6.91,4.47v.12c0,.3,.18,.48,.36,.54,1.25,.36,1.91,1.43,1.91,1.43l.77,1.37-.24-1.55c-.24-1.85,.12-3.28,1.01-4.29,.89-1.01,2.27-1.37,3.1-1.49-.06,.83-.18,1.67-.48,1.9l-.6,.48h1.73c.06,.42,.12,.83,.18,1.25-1.61,.36-2.74,1.9-2.74,3.81,0,1.73,.84,3.46,2.74,4.05h-.95c-.78,0-1.85-1.07-1.97-1.31l-.12-.48-.36,.3c0,.06-1.25,1.25-2.03,1.55l-.65,.24,.65,.3c.77,.3,2.03,1.49,2.03,1.49l.36,.3,.12-.42c.12-.24,1.19-1.37,1.97-1.37h1.37c-1.67,.89-3.16,2.92-3.16,5.24,0,3.21,2.68,4.7,4.53,4.7,2.2,0,3.63-1.43,3.63-3.58,0-.89-.36-1.67-.95-2.2-.72-.53-1.61-.77-2.56-.53-1.37,.24-2.03,1.01-2.03,2.21,0,.95,.48,1.55,1.31,1.67,.06,.06,.12,.06,.18,.06h.12c.54-.06,.95-.54,.95-1.08,0-.59-.48-1.07-1.07-1.07-.36,0-.71,.24-.89,.6-.06-.06-.06-.12-.06-.18,0-.54,.18-1.37,1.61-1.67,.77-.12,1.49,0,2.03,.48,.54,.42,.78,1.01,.78,1.73,0,1.79-1.19,2.98-3.04,2.98-1.61,0-3.93-1.31-3.93-4.11s2.38-4.89,4.05-5.13h.89c1.37,2.68,3.16,5.13,5.24,7.21,2.03,2.03,4.41,3.76,6.97,5.13,0,.24,0,.48-.06,.77-.18,1.67-2.2,3.99-5.06,3.99s-4.11-2.27-4.11-3.93c0-1.79,1.19-3.04,2.98-3.04,.72,0,1.31,.3,1.73,.77,.42,.54,.6,1.31,.42,2.09-.3,1.37-1.07,1.55-1.67,1.55h-.12c.36-.18,.6-.54,.6-.96,0-.6-.48-1.07-1.07-1.07s-1.01,.48-1.07,1.01v.3c.12,.78,.78,1.31,1.67,1.31,1.19,0,1.97-.71,2.26-2.03,.18-.95,0-1.9-.53-2.56-.54-.65-1.31-.95-2.2-.95-2.14,0-3.57,1.43-3.57,3.57,0,1.9,1.43,4.53,4.7,4.53,2.32,0,4.35-1.49,5.18-3.16v1.37c0,.84-1.07,1.91-1.31,1.97l-.48,.12,.36,.36c0,.06,1.19,1.31,1.49,2.03l.24,.66,.3-.66c.3-.71,1.49-1.97,1.49-2.03l.36-.36-.48-.12c-.24-.06-1.37-1.13-1.37-1.97v-.95c.66,1.91,2.38,2.8,4.11,2.8,1.85,0,3.28-1.07,3.69-2.56,.48,.06,.89,.12,1.31,.18v1.55l.53-.65c.24-.24,1.01-.36,1.91-.42-.12,.83-.48,2.14-1.55,3.1-1.01,.89-2.44,1.25-4.29,.95l-1.55-.18,1.37,.78s1.13,.59,1.49,1.9c.06,.18,.24,.3,.48,.3h.18c1.01-.12,4.17-2.44,4.47-6.85h.18c0,6.55-1.67,8.04-1.73,8.04l-.24,.24,.24,.24c1.61,1.37,1.73,2.8,1.73,2.92h0v4.4h.6v-4.4c.06-.14,.19-1.56,1.79-2.92l.24-.24-.24-.24c-.06,0-1.73-1.49-1.79-8.04h.24c.3,4.41,3.46,6.73,4.47,6.85h.12c.3,0,.48-.12,.54-.3,.36-1.31,1.43-1.9,1.49-1.9l1.37-.78-1.55,.18c-1.85,.3-3.33-.06-4.29-.95-1.07-.96-1.43-2.27-1.55-3.1,.83,.06,1.67,.18,1.9,.42l.54,.65v-1.55c.42-.06,.83-.12,1.25-.18,.48,1.49,1.91,2.56,3.75,2.56,1.73,0,3.45-.89,4.11-2.8v.95c0,.84-1.13,1.91-1.37,1.97l-.48,.12,.36,.36c.3,.36,1.25,1.43,1.49,2.03l.24,.66,.3-.66c.3-.71,1.49-1.97,1.49-2.03l.36-.36-.48-.12c-.24-.06-1.37-1.13-1.37-1.97v-1.37c.89,1.67,2.92,3.16,5.24,3.16,3.28,0,4.71-2.62,4.71-4.53,0-2.15-1.43-3.57-3.57-3.57-.89,0-1.67,.3-2.2,.95-.54,.66-.71,1.61-.54,2.56,.24,1.31,1.01,2.03,2.21,2.03,.95,0,1.55-.54,1.73-1.31v-.3c-.06-.54-.54-1.01-1.07-1.01-.6,0-1.07,.48-1.07,1.07,0,.42,.24,.78,.6,.96h-.18c-.54,0-1.37-.18-1.61-1.55-.18-.77,0-1.55,.42-2.09,.42-.48,1.01-.77,1.73-.77,1.79,0,2.98,1.25,2.98,3.04,0,1.67-1.25,3.93-4.11,3.93s-4.88-2.32-5.06-3.99c-.06-.3-.06-.53-.06-.77,2.56-1.37,4.88-3.1,6.91-5.13,2.08-2.08,3.87-4.53,5.24-7.21h.9c1.73,.24,4.05,2.26,4.05,5.13s-2.32,4.11-3.93,4.11c-1.79,0-3.04-1.19-3.04-2.98,0-.71,.3-1.31,.77-1.73,.54-.48,1.31-.6,2.03-.48,1.43,.3,1.61,1.13,1.61,1.67v.18c-.18-.36-.54-.6-.95-.6-.6,0-1.07,.48-1.07,1.07,0,.54,.42,1.01,1.01,1.08h.06c.06,0,.12,0,.18-.06,.84-.12,1.37-.71,1.37-1.67,0-1.19-.72-1.97-2.08-2.21-.9-.24-1.85,0-2.5,.53-.66,.54-1.01,1.31-1.01,2.2,0,2.15,1.49,3.58,3.63,3.58,1.91,0,4.53-1.49,4.53-4.7,0-2.32-1.49-4.35-3.16-5.24h1.37c.78,0,1.85,1.13,1.97,1.37l.12,.42,.36-.3s1.31-1.19,2.02-1.49l.65-.3-.65-.24c-.71-.3-2.02-1.49-2.02-1.55l-.36-.3-.12,.48c-.12,.24-1.19,1.31-1.97,1.31h-.95c1.91-.6,2.8-2.32,2.8-4.05,0-1.91-1.19-3.45-2.8-3.81,.06-.42,.12-.83,.18-1.25h1.73l-.6-.48c-.24-.24-.42-1.07-.42-1.9,.77,.12,2.14,.48,3.1,1.49,.9,1.01,1.19,2.44,.95,4.29l-.18,1.55,.71-1.37s.65-1.07,1.97-1.43c.12-.06,.3-.24,.3-.54v-.12c-.12-1.01-2.5-4.17-6.91-4.47v-.24c6.61,.06,8.1,1.73,8.1,1.73l.18,.3,.24-.24c1.43-1.61,2.8-1.79,2.98-1.79h4.41v-.6h-4.41Zm-14-11.97c2.86,0,3.87,2.02,3.87,3.75,0,1.85-1.13,2.92-2.38,3.22-.12-.48-.24-.95-.3-1.37,.77-.18,1.19-.95,1.19-1.67,0-.83-.71-1.97-2.32-1.97h-.06c-.24-.65-.54-1.25-.83-1.9,.3-.06,.6-.06,.83-.06Zm.83,3.51h-.3c-.06-.3-.18-.66-.3-.95,1.13,.06,1.55,.95,1.55,1.37v.12c-.18-.36-.54-.54-.95-.54Zm-14.71-16.68l.06,.12-.06-.06v-.06Zm-4.17-5c1.73,0,3.75,1.01,3.75,3.81,0,.36-.06,.65-.12,1.01-.59-.3-1.25-.53-1.9-.83v-.18c0-1.61-1.13-2.32-1.91-2.32s-1.61,.42-1.73,1.37c-.42-.06-.89-.18-1.37-.24,.18-1.37,1.31-2.62,3.28-2.62Zm-.3,2.09h.12c.42,0,1.37,.42,1.37,1.73-.36-.12-.72-.24-1.07-.36,.06-.12,.12-.3,.12-.42,0-.42-.24-.77-.53-.95Zm-16.8-2.09c1.97,0,3.04,1.25,3.28,2.56-.48,.12-.95,.24-1.43,.3-.06-.95-.89-1.37-1.67-1.37s-1.97,.72-1.97,2.32c0,.06,0,.12,.06,.18-.66,.24-1.31,.53-1.91,.83-.06-.36-.12-.65-.12-1.01,0-2.8,2.03-3.81,3.75-3.81Zm-.18,3.46c-.3,.12-.65,.24-1.01,.36,0-1.31,.95-1.73,1.37-1.73h.12c-.36,.18-.54,.54-.54,.95,0,.12,0,.3,.06,.42Zm-4.05,1.55l.06,.06h-.06v-.06Zm-17.69,16.92c0-1.73,.95-3.75,3.81-3.75,.3,0,.6,0,.84,.06-.3,.65-.54,1.25-.84,1.9h-.06c-1.55,0-2.26,1.13-2.26,1.97,0,.72,.36,1.49,1.19,1.67-.12,.42-.24,.89-.3,1.37-1.25-.3-2.38-1.37-2.38-3.22Zm3.57-1.19c-.12,.3-.18,.65-.3,.95h-.3c-.41,0-.71,.18-.89,.54-.06-.06-.06-.12-.06-.12,0-.42,.42-1.31,1.55-1.37Zm.24,22.04c-2.86,0-3.81-2.03-3.81-3.75s1.07-2.92,2.26-3.22c.06,.48,.18,.95,.24,1.37-.71,.24-1.01,.95-1.01,1.61,0,.83,.65,1.91,2.09,1.97,.3,.65,.54,1.31,.84,1.97-.18,0-.42,.06-.6,.06Zm-.84-3.51h.12c.06,.3,.18,.6,.3,.89-1.01-.18-1.37-.95-1.37-1.37,0,0,0-.06,.06-.06,.18,.3,.48,.54,.89,.54Zm18.94,21.68c-1.73,0-3.75-1.01-3.75-3.81v-.48c.66,.3,1.31,.6,2.03,.83,.12,1.37,1.19,1.97,1.9,1.97,.66,0,1.31-.3,1.55-.89,.48,.12,.95,.24,1.43,.3-.42,1.13-1.49,2.09-3.16,2.09Zm-1.07-3.21c.24,.12,.54,.18,.84,.3,0,.36,.24,.66,.54,.83h-.12c-.36,0-1.07-.3-1.25-1.13Zm18.17,3.21c-1.67,0-2.74-.95-3.16-2.09,.48-.06,.95-.18,1.43-.3,.24,.6,.89,.89,1.55,.89,.71,0,1.79-.6,1.91-1.97,.65-.24,1.37-.53,1.97-.83,.06,.12,.06,.3,.06,.48,0,2.8-2.02,3.81-3.75,3.81Zm-.3-2.09c.3-.18,.53-.48,.53-.83,.3-.12,.6-.18,.83-.3-.18,.83-.89,1.13-1.25,1.13h-.12Zm11.67-8.16c-5.12,5.06-12.15,8.22-19.95,8.22s-14.83-3.16-19.89-8.22c-5.12-5.12-8.28-12.15-8.28-19.95s3.16-14.83,8.28-19.89c5.06-5.12,12.09-8.28,19.89-8.28s14.83,3.16,19.95,8.28c5.06,5.06,8.22,12.09,8.22,19.89s-3.16,14.83-8.22,19.95Zm7.5-11.44c.42,0,.77-.24,.95-.54v.06c0,.42-.36,1.19-1.31,1.37,.06-.3,.18-.6,.24-.89h.12Zm3.04-.24c0,1.73-1.01,3.75-3.87,3.75-.18,0-.36-.06-.59-.06,.3-.66,.59-1.31,.83-1.97,1.49-.06,2.14-1.13,2.14-1.97,0-.66-.36-1.37-1.07-1.61,.12-.42,.18-.89,.3-1.37,1.19,.3,2.26,1.43,2.26,3.22Z"/>
    <path class="cls-1" d="M69.21,31.03c-4.89-4.94-11.74-7.98-19.24-7.98s-14.29,3.04-19.24,7.98c-4.94,4.94-7.98,11.73-7.98,19.24s3.04,14.36,7.98,19.24c4.95,4.94,11.73,7.98,19.24,7.98s14.35-3.04,19.24-7.98c4.94-4.88,7.98-11.73,7.98-19.24s-3.04-14.3-7.98-19.24Zm-.3,38.18c-4.82,4.83-11.56,7.86-18.94,7.86s-14.06-3.04-18.94-7.86c-4.83-4.82-7.8-11.56-7.8-18.94s2.98-14.06,7.8-18.94c4.88-4.83,11.55-7.8,18.94-7.8s14.12,2.98,18.94,7.8c4.83,4.88,7.86,11.56,7.86,18.94s-3.04,14.12-7.86,18.94Z"/>
  </g>
</svg>