<?xml version="1.0" encoding="UTF-8"?>
<svg id="Layer_1" data-name="Layer 1" xmlns="http://www.w3.org/2000/svg" xmlns:xlink="http://www.w3.org/1999/xlink" viewBox="0 0 100 100">
  <defs>
    <style>
      .cls-1 {
        fill: url(#linear-gradient-2);
      }

      .cls-2 {
        fill: url(#linear-gradient);
      }

      .cls-3 {
        fill: #010101;
      }
    </style>
    <linearGradient id="linear-gradient" x1="5" y1="44.26" x2="95" y2="44.26" gradientUnits="userSpaceOnUse">
      <stop offset="0" stop-color="#a37e46"/>
      <stop offset=".3" stop-color="#c9a267"/>
      <stop offset=".7" stop-color="#f2d599"/>
      <stop offset="1" stop-color="#cea25e"/>
    </linearGradient>
    <linearGradient id="linear-gradient-2" x1="22.49" y1="78.89" x2="77.19" y2="78.89" xlink:href="#linear-gradient"/>
  </defs>
  <rect class="cls-3" width="100" height="100"/>
  <g>
    <path class="cls-2" d="M72.59,42.02s4.11,9.71-6.16,13.26c-10.27,3.55-16.8-15.68-2.05-19.05,0,0-11.95-11.21-14.38-18.48-2.42,7.28-14.38,18.48-14.38,18.48,14.75,3.36,8.22,22.59-2.05,19.05-10.27-3.55-6.16-13.26-6.16-13.26-10.27-2.61-22.41-9.71-22.41-9.71,11.95,15.12,17.18,38.46,17.18,38.46h55.64s5.22-23.34,17.18-38.46c0,0-12.14,7.09-22.41,9.71Z"/>
    <polygon class="cls-1" points="75.92 82.25 23.76 82.25 22.49 75.53 77.19 75.53 75.92 82.25"/>
  </g>
</svg>