<?xml version="1.0" encoding="UTF-8"?>
<svg id="Layer_1" data-name="Layer 1" xmlns="http://www.w3.org/2000/svg" xmlns:xlink="http://www.w3.org/1999/xlink" viewBox="0 0 44 44">
  <defs>
    <style>
      .cls-1 {
        fill: #dcbb5a;
      }

      .cls-2 {
        fill: #d6ae4e;
      }

      .cls-3 {
        fill: url(#linear-gradient);
      }
    </style>
    <linearGradient id="linear-gradient" x1=".21" y1="21.91" x2="43.79" y2="21.91" gradientUnits="userSpaceOnUse">
      <stop offset="0" stop-color="#a87a24"/>
      <stop offset=".1" stop-color="#bb933c"/>
      <stop offset=".27" stop-color="#daba62"/>
      <stop offset=".41" stop-color="#edd379"/>
      <stop offset=".5" stop-color="#f4dc82"/>
      <stop offset=".59" stop-color="#edd379"/>
      <stop offset=".73" stop-color="#daba62"/>
      <stop offset=".92" stop-color="#bc933c"/>
      <stop offset="1" stop-color="#ad7f29"/>
    </linearGradient>
  </defs>
  <path class="cls-1" d="M37.91,5.76c1,1.02,1.91,2.44,2.46,3.19-.79-1.81-3.19-5.06-5.21-5.56-.11-.03,1.34,.94,2.74,2.37Z"/>
  <path class="cls-2" d="M26.41,43.56c-.75,.15-1.55,.25-2.19,.43,1.5,.06,2.99-.14,4.47-.65-.44-.1-1.69,.17-2.29,.23Z"/>
  <path class="cls-2" d="M29.32,42.91c2.07-.21,5.08-1.99,6.88-3.7-2.48,1.61-3.96,2.55-6.88,3.7Z"/>
  <path class="cls-3" d="M43.67,18.8l-.51-2.7c-.07-.29-.19-.63-.17-.92-.13-.19-.99-2.84-2.32-4.86-.56-.85-1.21-1.69-1.86-2.42-.72-.8-1.76-1.83-2.66-2.44-.27-.21-.51-.36-.77-.59-.15-.04-1.09-.68-1.35-.83-.52-.29-2.91-1.56-3.26-1.52-.42,.04-.2,.14-.64,.04-.91-.2-1.7-.38-2.55-.54-.88-.17-1.68-.29-2.58-.36-.26-.02-.43-.08-.67-.09l-1.93-.13c-1.72-.09-3.31-.2-5.31,.38-3.03,.87-2,.08,.04-.41,1.77-.42,3.52-.6,5.09-.59,3.56,.02,3.87,.55,6.65,1.05-.3-.18-1.2-.47-1.56-.58-3.3-1.05-3.01-.49-4.84-.9,1.42-.22,3.91,.26,5.43,.47,2.05,.43,4.12,1.45,5.18,1.74-.95-.69-3.28-1.46-4.53-1.84-1.48-.44-2.23-.48-3.62-.68-.66-.09-1.76-.09-2.51-.07-1.65,.04-3.3,.21-4.91,.56-.86,.19-1.53,.38-2.4,.65-1.71,.54-4.47,2.12-6,3.23-.92,.67-1.72,1.35-2.54,2.16C-.16,13.25-1.73,23.59,2.72,31.94c2.02,3.77,5.42,7.46,9.27,9.37,.63,.31,1.83,.73,2.28,1.03,.13-.02,2.06,.62,2.35,.7,.73,.2,1.79,.47,2.46,.54,1.4,.15,2.14,.28,3.68,.21,1.51-.07,3.62-.34,4.98-.89-1.1,.03-3.45,.72-5.64,.5-1.53-.15-4-.15-5.32-.71,1.86,.16,4.48,.74,6.57,.11-1.83,.05-2.87,.08-4.56-.15-.58-.08-1.26-.21-2.15-.42-4.55-1.11-6.5-3.25-7.14-4.13,2.13,1.83,4.72,3.03,7.47,3.57l1.9,.34c.24,.04,.42,.03,.68,.07,.89,.15,1.7,.23,2.59,.27,.87,.04,1.68,.06,2.61,.09,1.76,.06,2.52-.06,4.14-.5,1.69-.46,4.16-1.65,5.57-2.6,.8-.55,1.65-1.21,2.39-1.9,1.77-1.64,3.24-4.01,3.42-4.16,.05-.28,.25-.58,.39-.85l1.14-2.5c0-.19,.62-1.85,.7-2.33l-.21,.43-.78,1.74c-.15,.99-2.27,4.12-3.11,5.09-.97,1.12-4.23,4.22-5.49,4.38,.89-.73,1.4-.88,2.36-1.81,.5-.49,.54-.44,.63-.7-1.4,1.13-2.96,2.22-4.5,2.77,.36-.3,2.22-1.46,3.16-2.19,1.24-.96,1.95-1.78,2.93-2.87,.2-.3,.46-.74,.75-.93l.04-.13c.18-.41,.98-1.38,1.31-2.17-.64,.71-1.18,1.81-1.86,2.62-.68,.81-1.79,1.9-2.69,2.58l1.66-1.81c1.31-1.44,1.68-2.12,2.57-3.77,.22-.4,.76-1.68,.9-1.85-.53,.64-1.11,1.77-1.69,2.59-.59,.83-1.54,1.95-2.34,2.63,.69-1.16,1.14-1.28,2.13-3.33,.64-1.35,1.1-2.79,1.52-4.09-.53,.85-.98,2.19-1.4,3.14-.37,.75-1.12,1.91-1.65,2.64-.98,1.33-2.52,2.83-3.91,3.81-.23,.16-.47,.32-.72,.48-.31,.2-.48,.34-.8,.38,.91-.73,1.7-1.29,2.61-2.09-.28,.05-.74,.45-.97,.63-.34,.26-.68,.49-1.01,.7-.58,.35-1.41,.96-1.99,1,1.14-.8,2.58-1.48,4.31-3.3,.73-.77,2.59-3.18,2.78-3.9-.55,.76-.99,1.56-1.69,2.35-.46,.52-1.75,1.88-2.33,2.2,.13-.25,1.92-1.96,2.69-3.08,.49-.71,1.62-2.53,1.73-3.22l-.48,.69c-.27,.56-.84,1.34-1.5,2.12-1.05,1.52-2.37,2.9-3.95,4.04-3.26,2.36-6.6,3.4-9.81,3.36-5.66-.07-10.63-2.65-14.62-8.88-3.97-7.26-2.02-16.51,4.85-21.5,7.07-5.12,17.15-4.06,22.85,3.14l.38,.38c.23,.25,.46,.53,.69,.8,1.07,1.32,2.65,4.26,2.95,5.68l.3,.78c.06-.7-.6-2.74-.91-3.54-.48-1.27-1.8-3.36-1.87-3.63,.49,.45,1.42,2.08,1.74,2.69,.49,.93,.72,1.81,1.07,2.68-.01-.74-1.24-3.53-1.76-4.45-1.24-2.18-2.43-2.97-3.39-4.24,.56,.17,1.22,.96,1.69,1.45,.28,.28,.54,.59,.82,.92,.18,.22,.53,.73,.79,.84-.69-.99-1.33-1.73-2.03-2.66,.31,.11,.43,.29,.69,.56,.21,.22,.4,.42,.59,.64,1.12,1.29,2.25,3.12,2.88,4.64,.34,.83,.79,2.14,.97,2.96,.17,1.03,.29,2.44,.6,3.39-.1-1.37-.19-2.87-.49-4.34-.46-2.23-.87-2.45-1.26-3.75,.61,.85,1.26,2.17,1.64,3.11,.37,.94,.66,2.18,1.02,2.92-.09-.2-.32-1.58-.43-2.02-.47-1.81-.66-2.56-1.59-4.27l-1.17-2.15c.72,.87,1.52,2.2,1.99,3.15,.47,.95,.73,2.14,1.18,2.99-.14-.84-.68-1.98-.75-2.42v-.14c-.25-.25-.4-.74-.52-1.08-.69-1.3-1.18-2.26-2.15-3.49-.74-.94-2.26-2.51-2.54-2.89,1.37,.91,2.62,2.34,3.7,3.77-.02-.27-.07-.24-.44-.83-.7-1.13-1.17-1.4-1.85-2.32,1.18,.46,3.6,4.25,4.27,5.57,.58,1.15,1.89,4.7,1.79,5.69l.34,1.87,.1,.46c.03-.48-.17-2.24-.12-2.43Z"/>
</svg>